<svg version="1.1" id="Layer_1" xmlns="http://www.w3.org/2000/svg" xmlns:xlink="http://www.w3.org/1999/xlink" x="0px" y="0px"
	 width="100%" viewBox="0 0 511 488" enable-background="new 0 0 511 488" xml:space="preserve">
<path fill="#ECCBBD" opacity="1.000000" stroke="none" 
	d="
M292.000000,489.000000 
	C194.666687,489.000000 97.833382,489.000000 1.000052,489.000000 
	C1.000035,326.333405 1.000035,163.666794 1.000017,1.000139 
	C171.333237,1.000093 341.666473,1.000093 511.999756,1.000046 
	C511.999847,163.666519 511.999847,326.333038 511.999939,488.999786 
	C438.833344,489.000000 365.666656,489.000000 292.000000,489.000000 
M175.358170,241.095947 
	C157.762817,227.613098 140.167465,214.130234 122.433533,200.541199 
	C125.494125,196.415833 126.070198,193.080338 122.149620,190.786011 
	C117.786682,188.232788 113.504333,185.607330 107.912216,185.912262 
	C91.195961,186.823776 74.406311,186.746918 57.746239,188.207321 
	C46.310837,189.209747 35.075119,192.270111 25.236750,198.807327 
	C15.483926,205.287720 10.261442,215.473633 17.801701,225.948654 
	C23.403719,233.731049 30.372942,240.968140 38.026833,246.729523 
	C48.898155,254.912827 60.617352,262.145844 72.597275,268.634674 
	C86.839851,276.349030 100.646805,285.524231 117.501076,287.075500 
	C120.218521,287.325653 119.622581,288.954376 119.157410,291.020050 
	C117.574707,298.048431 115.461655,305.126129 115.186058,312.248260 
	C114.380013,333.079041 114.918999,353.818115 121.371933,374.047363 
	C124.399460,383.538391 126.764305,393.375916 125.813278,403.714447 
	C120.386879,402.190613 115.896591,403.431000 111.707527,406.697998 
	C103.878319,412.803802 99.620743,421.050659 98.372559,430.559998 
	C96.641281,443.749786 100.312752,455.550568 110.748283,464.265076 
	C125.598106,476.665771 143.133438,479.361206 161.521896,475.796295 
	C175.089157,473.166077 185.063385,465.205994 190.122986,451.848358 
	C190.864319,449.891205 192.031097,448.095184 193.084229,446.064117 
	C207.379715,464.556091 223.045578,479.875183 248.315674,479.000580 
	C273.184967,478.139862 288.461975,462.427887 301.657135,444.055206 
	C302.285828,444.296814 302.524841,444.317657 302.559113,444.412476 
	C303.060089,445.798737 303.493561,447.210205 304.020172,448.586182 
	C308.631470,460.634247 316.423035,469.221802 329.160706,473.201111 
	C339.900635,476.556366 350.475647,476.505920 361.287170,474.031433 
	C385.362183,468.521179 401.097351,451.698029 395.977448,424.954926 
	C393.424561,411.620239 383.871429,402.963531 370.452515,401.869110 
	C370.017273,401.833588 369.610504,401.449097 368.430969,400.826233 
	C369.152069,395.009399 369.594391,388.925964 370.707489,382.967834 
	C373.296326,369.110504 377.545044,355.418457 378.640167,341.464722 
	C379.913788,325.237183 380.376160,308.667297 375.348053,292.675720 
	C374.491699,289.952087 375.188477,288.513580 378.407135,287.885742 
	C385.332733,286.534729 392.485474,285.456482 398.953735,282.817017 
	C419.551727,274.411682 439.377258,264.398010 457.949554,252.031021 
	C470.259705,243.833923 482.041138,235.033020 490.079773,222.312653 
	C494.546783,215.244095 495.866333,205.205292 487.479218,198.955978 
	C483.824097,196.232498 479.785217,193.772507 475.559540,192.111649 
	C460.588135,186.227325 444.626526,186.091736 428.896881,185.141159 
	C420.997772,184.663788 413.010681,185.906387 405.060883,185.953720 
	C382.897308,186.085724 360.732452,185.999619 338.568085,185.999649 
	C336.814453,185.999649 335.060822,185.999649 333.000275,185.999649 
	C333.000275,183.575531 333.000275,181.927460 333.000275,180.279404 
	C333.000092,158.448349 333.037201,136.617188 332.979187,114.786278 
	C332.959290,107.302567 330.419495,105.532425 323.188873,107.374954 
	C313.342163,109.884117 303.533783,112.618210 293.581573,114.623810 
	C270.132233,119.349388 246.507187,122.853096 222.505264,122.993050 
	C215.075256,123.036377 207.630493,122.742691 200.222900,123.152954 
	C197.883636,123.282509 194.749100,124.652458 193.638290,126.469429 
	C192.735825,127.945648 193.729675,131.298904 194.895905,133.197144 
	C199.794647,141.170700 205.304245,148.770248 210.169815,156.762634 
	C223.215469,178.192078 235.788956,199.996323 239.560822,225.267059 
	C242.687805,246.217300 232.207977,261.542511 207.622955,256.121002 
	C195.993942,253.556610 185.891708,247.733719 175.358170,241.095947 
M102.043709,162.345169 
	C106.388268,166.415390 110.250092,171.241577 115.182495,174.391251 
	C124.181007,180.137421 133.840912,184.841980 143.170410,190.078186 
	C147.726990,192.635590 152.160965,195.411438 156.650436,198.088409 
	C155.581757,198.951828 154.821320,199.171951 154.291794,198.915436 
	C151.283371,197.458023 148.504410,198.798965 147.748123,201.178192 
	C147.141296,203.087158 148.444489,205.993912 149.674622,207.977585 
	C150.736694,209.690231 152.864136,210.760071 154.564865,212.055984 
	C167.822006,222.157486 181.316910,231.798767 197.728409,236.344330 
	C211.708862,240.216553 222.120514,232.652435 221.948883,218.223206 
	C221.803162,205.970337 217.387894,194.773193 212.369751,183.835800 
	C203.630325,164.787598 193.103531,146.691681 180.346405,130.130264 
	C165.689346,111.102287 150.577759,92.356514 134.612289,74.424149 
	C119.735931,57.715065 103.090813,42.659130 84.922958,29.447987 
	C73.176941,20.906624 61.259228,12.463697 46.717426,9.445963 
	C36.730316,7.373423 25.771646,9.500079 23.816042,23.644735 
	C22.617596,32.312958 24.892776,40.155811 27.495708,48.061825 
	C27.897701,49.282822 29.273041,50.408493 30.473166,51.103588 
	C36.459332,54.570663 42.557716,57.843204 48.577370,61.253460 
	C54.915096,64.843910 61.208447,68.512711 68.427979,72.669357 
	C66.623062,72.862076 65.985031,73.053352 65.381683,72.975571 
	C59.340023,72.196732 53.288052,71.475266 47.272179,70.527016 
	C43.316257,69.903473 39.030052,72.561104 40.203091,75.581383 
	C42.493015,81.477356 44.710197,87.753288 50.655655,91.219261 
	C57.475201,95.194809 64.463165,98.880409 71.349289,102.743103 
	C77.258568,106.057823 83.127441,109.444603 89.014175,112.799522 
	C83.792732,112.953987 78.936226,112.216545 74.055504,111.980949 
	C71.870155,111.875458 68.316917,112.143517 67.730347,113.366875 
	C66.826881,115.251129 67.081505,118.747925 68.345833,120.437271 
	C74.971359,129.290009 80.359283,139.440445 91.830566,143.558640 
	C95.369377,144.829071 98.439629,147.404633 101.810905,149.434677 
	C96.521309,155.006836 96.527725,155.271637 102.043709,162.345169 
z"/>
<path fill="#DA5623" opacity="1.000000" stroke="none" 
	d="
M175.663162,241.298615 
	C185.891708,247.733719 195.993942,253.556610 207.622955,256.121002 
	C232.207977,261.542511 242.687805,246.217300 239.560822,225.267059 
	C235.788956,199.996323 223.215469,178.192078 210.169815,156.762634 
	C205.304245,148.770248 199.794647,141.170700 194.895905,133.197144 
	C193.729675,131.298904 192.735825,127.945648 193.638290,126.469429 
	C194.749100,124.652458 197.883636,123.282509 200.222900,123.152954 
	C207.630493,122.742691 215.075256,123.036377 222.505264,122.993050 
	C246.507187,122.853096 270.132233,119.349388 293.581573,114.623810 
	C303.533783,112.618210 313.342163,109.884117 323.188873,107.374954 
	C330.419495,105.532425 332.959290,107.302567 332.979187,114.786278 
	C333.037201,136.617188 333.000092,158.448349 333.000275,180.279404 
	C333.000275,181.927460 333.000275,183.575531 333.000275,185.999649 
	C335.060822,185.999649 336.814453,185.999649 338.568085,185.999649 
	C360.732452,185.999619 382.897308,186.085724 405.060883,185.953720 
	C413.010681,185.906387 420.997772,184.663788 428.896881,185.141159 
	C444.626526,186.091736 460.588135,186.227325 475.559540,192.111649 
	C479.785217,193.772507 483.824097,196.232498 487.479218,198.955978 
	C495.866333,205.205292 494.546783,215.244095 490.079773,222.312653 
	C482.041138,235.033020 470.259705,243.833923 457.949554,252.031021 
	C439.377258,264.398010 419.551727,274.411682 398.953735,282.817017 
	C392.485474,285.456482 385.332733,286.534729 378.407135,287.885742 
	C375.188477,288.513580 374.491699,289.952087 375.348053,292.675720 
	C380.376160,308.667297 379.913788,325.237183 378.640167,341.464722 
	C377.545044,355.418457 373.296326,369.110504 370.707489,382.967834 
	C369.594391,388.925964 369.152069,395.009399 368.430969,400.826233 
	C369.610504,401.449097 370.017273,401.833588 370.452515,401.869110 
	C383.871429,402.963531 393.424561,411.620239 395.977448,424.954926 
	C401.097351,451.698029 385.362183,468.521179 361.287170,474.031433 
	C350.475647,476.505920 339.900635,476.556366 329.160706,473.201111 
	C316.423035,469.221802 308.631470,460.634247 304.020172,448.586182 
	C303.493561,447.210205 303.060089,445.798737 302.559113,444.412476 
	C302.524841,444.317657 302.285828,444.296814 301.657135,444.055206 
	C288.461975,462.427887 273.184967,478.139862 248.315674,479.000580 
	C223.045578,479.875183 207.379715,464.556091 193.084229,446.064117 
	C192.031097,448.095184 190.864319,449.891205 190.122986,451.848358 
	C185.063385,465.205994 175.089157,473.166077 161.521896,475.796295 
	C143.133438,479.361206 125.598106,476.665771 110.748283,464.265076 
	C100.312752,455.550568 96.641281,443.749786 98.372559,430.559998 
	C99.620743,421.050659 103.878319,412.803802 111.707527,406.697998 
	C115.896591,403.431000 120.386879,402.190613 125.813278,403.714447 
	C126.764305,393.375916 124.399460,383.538391 121.371933,374.047363 
	C114.918999,353.818115 114.380013,333.079041 115.186058,312.248260 
	C115.461655,305.126129 117.574707,298.048431 119.157410,291.020050 
	C119.622581,288.954376 120.218521,287.325653 117.501076,287.075500 
	C100.646805,285.524231 86.839851,276.349030 72.597275,268.634674 
	C60.617352,262.145844 48.898155,254.912827 38.026833,246.729523 
	C30.372942,240.968140 23.403719,233.731049 17.801701,225.948654 
	C10.261442,215.473633 15.483926,205.287720 25.236750,198.807327 
	C35.075119,192.270111 46.310837,189.209747 57.746239,188.207321 
	C74.406311,186.746918 91.195961,186.823776 107.912216,185.912262 
	C113.504333,185.607330 117.786682,188.232788 122.149620,190.786011 
	C126.070198,193.080338 125.494125,196.415833 122.433533,200.541199 
	C140.167465,214.130234 157.762817,227.613098 175.663162,241.298615 
M385.988892,441.241913 
	C388.538971,432.285339 386.047821,424.373352 380.995850,416.974030 
	C377.128845,411.310242 374.355347,410.632904 368.202942,413.927582 
	C364.046265,416.153503 360.270325,414.939362 359.813782,410.148254 
	C359.081116,402.458740 358.630096,394.515961 359.739471,386.925659 
	C361.894775,372.178436 365.701447,357.674896 367.928040,342.935089 
	C370.594086,325.286377 369.566650,307.693512 364.230194,290.513031 
	C361.691650,282.340302 362.993439,280.637695 371.570465,278.916504 
	C379.914703,277.242096 388.623688,276.027130 396.292480,272.626068 
	C412.527374,265.425995 428.523193,257.524719 443.983459,248.789627 
	C457.160858,241.344330 469.774292,232.766251 479.182281,220.377441 
	C485.489655,212.071609 484.307007,205.372177 474.534851,202.487411 
	C464.370056,199.486725 453.810760,197.310913 443.274506,196.226532 
	C433.143494,195.183868 422.821228,195.998672 412.582977,195.998611 
	C384.586426,195.998459 356.589661,195.942856 328.593597,196.058151 
	C324.262939,196.075974 322.751556,193.638611 322.069244,190.123535 
	C321.788422,188.676804 322.001038,187.132935 322.000946,185.633255 
	C321.999420,163.318695 321.999878,141.004135 321.999878,118.362297 
	C284.687714,128.549133 246.943192,133.138809 208.105515,134.001312 
	C209.045090,135.691650 209.526031,136.705795 210.137070,137.634338 
	C224.385696,159.286636 237.295853,181.658142 245.601364,206.343384 
	C249.515930,217.978134 251.841980,229.977341 248.957581,242.290283 
	C244.484879,261.383362 229.861084,267.921875 215.827301,267.708862 
	C202.488663,267.506317 189.968613,262.424194 178.863785,255.061676 
	C166.133072,246.621231 153.735382,237.630951 141.618073,228.326019 
	C129.206940,218.795441 117.371521,208.517944 105.122864,198.769989 
	C103.257523,197.285477 100.495979,196.068802 98.190887,196.137405 
	C85.291542,196.521255 72.268303,196.418167 59.559006,198.308014 
	C49.995804,199.730042 40.609245,203.331161 31.577307,207.022369 
	C24.305069,209.994431 22.757378,215.572739 27.126202,221.797943 
	C30.569141,226.703812 34.820896,231.389404 39.627316,234.933350 
	C66.060371,254.423416 93.271858,272.528564 126.368454,278.997620 
	C131.167526,279.935699 132.118301,282.356659 130.959259,287.149963 
	C128.806305,296.053589 125.839333,304.964325 125.266380,314.002380 
	C124.178925,331.156372 124.790794,348.385986 129.579605,365.138702 
	C133.531448,378.963470 136.922775,392.834717 136.050034,407.425415 
	C135.555542,415.692566 132.178085,418.087677 124.980736,414.405182 
	C122.095497,412.928986 119.753914,412.886078 117.386307,415.123596 
	C106.135498,425.756226 104.604416,442.257050 115.321350,454.654633 
	C122.529106,462.992706 132.903717,465.591644 143.311523,466.837585 
	C152.236404,467.905914 161.193359,466.840576 169.190292,462.206482 
	C179.539917,456.209106 182.055786,445.199829 185.850357,435.077026 
	C186.049515,434.545746 185.794128,433.767212 185.575287,433.167694 
	C182.421494,424.527924 179.534241,415.775360 175.997208,407.294220 
	C169.307098,391.252594 166.608582,374.309845 166.256271,357.265961 
	C165.835434,336.905151 167.416595,316.506927 167.960999,296.120361 
	C168.196747,287.291534 169.570328,286.216034 178.282837,286.959290 
	C196.532562,288.516174 214.811691,289.742676 233.087921,290.967804 
	C240.534180,291.466980 248.023575,292.104187 255.459671,291.814423 
	C272.162476,291.163635 288.843414,289.959015 305.535034,289.010773 
	C309.466614,288.787445 311.500122,290.485962 312.081970,294.634705 
	C313.379364,303.885742 314.792755,313.141541 316.704956,322.281128 
	C321.055664,343.075928 326.415619,363.781891 322.920197,385.277130 
	C321.318787,395.125366 319.338684,404.975037 316.596436,414.556763 
	C313.915131,423.925354 306.371155,432.470398 313.005798,442.966553 
	C313.085907,443.093262 313.020782,443.303223 313.075195,443.455872 
	C316.511932,453.092102 322.145111,460.683685 332.442932,463.697571 
	C339.466461,465.753113 346.641693,466.277130 353.886047,464.991241 
	C368.202332,462.450012 381.159912,457.986267 385.988892,441.241913 
M297.901031,430.382202 
	C309.428192,411.907806 313.924927,391.471466 313.841125,370.029510 
	C313.807922,361.532196 312.404053,352.970215 310.912506,344.563965 
	C308.284882,329.755096 305.110596,315.043274 302.005585,299.491455 
	C260.872589,303.408661 219.621307,302.198364 178.498535,297.681213 
	C177.899979,307.266663 176.967728,315.835632 176.916443,324.409851 
	C176.824493,339.783752 176.812637,355.183929 177.602890,370.530121 
	C178.423309,386.462494 184.832245,401.063507 189.827240,416.004089 
	C196.213379,435.105743 206.817276,451.087189 223.763428,462.034668 
	C238.590225,471.613007 254.014175,471.648621 269.433868,462.328522 
	C282.061127,454.696259 290.234222,443.313690 297.901031,430.382202 
z"/>
<path fill="#DA5623" opacity="1.000000" stroke="none" 
	d="
M101.897705,162.011520 
	C96.527725,155.271637 96.521309,155.006836 101.810905,149.434677 
	C98.439629,147.404633 95.369377,144.829071 91.830566,143.558640 
	C80.359283,139.440445 74.971359,129.290009 68.345833,120.437271 
	C67.081505,118.747925 66.826881,115.251129 67.730347,113.366875 
	C68.316917,112.143517 71.870155,111.875458 74.055504,111.980949 
	C78.936226,112.216545 83.792732,112.953987 89.014175,112.799522 
	C83.127441,109.444603 77.258568,106.057823 71.349289,102.743103 
	C64.463165,98.880409 57.475201,95.194809 50.655655,91.219261 
	C44.710197,87.753288 42.493015,81.477356 40.203091,75.581383 
	C39.030052,72.561104 43.316257,69.903473 47.272179,70.527016 
	C53.288052,71.475266 59.340023,72.196732 65.381683,72.975571 
	C65.985031,73.053352 66.623062,72.862076 68.427979,72.669357 
	C61.208447,68.512711 54.915096,64.843910 48.577370,61.253460 
	C42.557716,57.843204 36.459332,54.570663 30.473166,51.103588 
	C29.273041,50.408493 27.897701,49.282822 27.495708,48.061825 
	C24.892776,40.155811 22.617596,32.312958 23.816042,23.644735 
	C25.771646,9.500079 36.730316,7.373423 46.717426,9.445963 
	C61.259228,12.463697 73.176941,20.906624 84.922958,29.447987 
	C103.090813,42.659130 119.735931,57.715065 134.612289,74.424149 
	C150.577759,92.356514 165.689346,111.102287 180.346405,130.130264 
	C193.103531,146.691681 203.630325,164.787598 212.369751,183.835800 
	C217.387894,194.773193 221.803162,205.970337 221.948883,218.223206 
	C222.120514,232.652435 211.708862,240.216553 197.728409,236.344330 
	C181.316910,231.798767 167.822006,222.157486 154.564865,212.055984 
	C152.864136,210.760071 150.736694,209.690231 149.674622,207.977585 
	C148.444489,205.993912 147.141296,203.087158 147.748123,201.178192 
	C148.504410,198.798965 151.283371,197.458023 154.291794,198.915436 
	C154.821320,199.171951 155.581757,198.951828 156.650436,198.088409 
	C152.160965,195.411438 147.726990,192.635590 143.170410,190.078186 
	C133.840912,184.841980 124.181007,180.137421 115.182495,174.391251 
	C110.250092,171.241577 106.388268,166.415390 101.897705,162.011520 
M73.970085,84.628273 
	C68.533791,83.803612 63.097496,82.978951 56.206516,81.933617 
	C58.370201,83.546341 59.312614,84.419594 60.401569,85.032463 
	C66.991669,88.741348 73.636566,92.352951 80.223099,96.068069 
	C93.117271,103.341019 106.002243,110.630730 118.848846,117.987167 
	C121.297852,119.389549 123.600906,120.996841 122.180428,124.591324 
	C120.740402,128.235260 117.881493,128.336441 114.787170,127.874214 
	C104.636383,126.357910 94.496376,124.769463 84.352226,123.208740 
	C84.106918,123.582214 83.861610,123.955688 83.616310,124.329163 
	C85.857948,126.581825 87.759041,129.404572 90.402924,130.983902 
	C99.579895,136.465775 109.021278,141.504303 118.348724,146.735306 
	C122.788300,149.225113 127.441750,151.438263 131.507690,154.441055 
	C133.276337,155.747269 134.622284,158.749344 134.558563,160.934464 
	C134.527145,162.011078 130.895828,163.714890 128.816879,163.837662 
	C125.183228,164.052216 121.490448,163.265305 116.510452,162.766708 
	C117.969185,164.133484 118.341240,164.647064 118.843376,164.928787 
	C138.227707,175.804489 157.661942,186.592560 176.955856,197.626022 
	C178.752350,198.653397 180.573715,201.150620 180.718185,203.089462 
	C180.840530,204.731247 178.767471,206.776306 177.266861,208.231262 
	C175.797394,209.656006 173.823715,210.560715 171.668854,211.953903 
	C180.843918,218.662827 190.224396,223.941330 200.789841,226.787964 
	C207.776627,228.670425 212.097244,225.175354 211.914719,217.832947 
	C211.834198,214.592819 211.038284,211.329514 210.252502,208.154617 
	C205.639664,189.516724 196.329651,172.996323 186.287292,156.945663 
	C168.032074,127.768494 146.615936,100.925316 122.555664,76.403427 
	C109.140732,62.731129 94.229179,50.466805 79.472839,38.192192 
	C69.474274,29.875198 58.295780,23.032614 45.569897,19.543619 
	C39.308887,17.827066 33.121994,18.091503 33.933853,28.136034 
	C34.067722,29.792305 33.638607,31.563135 34.071918,33.112598 
	C35.168079,37.032280 34.198624,41.831459 38.784328,44.355412 
	C48.147457,49.508839 57.469280,54.737427 66.799812,59.949921 
	C77.582603,65.973724 88.446266,71.863632 99.036942,78.208717 
	C100.617790,79.155830 101.948334,82.522957 101.520676,84.326073 
	C100.954399,86.713638 98.708061,88.412102 95.314629,87.794731 
	C88.532845,86.560905 81.657684,85.840286 73.970085,84.628273 
z"/>
<path fill="#ECCBBD" opacity="1.000000" stroke="none" 
	d="
M385.949860,441.655945 
	C381.159912,457.986267 368.202332,462.450012 353.886047,464.991241 
	C346.641693,466.277130 339.466461,465.753113 332.442932,463.697571 
	C322.145111,460.683685 316.511932,453.092102 313.075195,443.455872 
	C313.020782,443.303223 313.085907,443.093262 313.005798,442.966553 
	C306.371155,432.470398 313.915131,423.925354 316.596436,414.556763 
	C319.338684,404.975037 321.318787,395.125366 322.920197,385.277130 
	C326.415619,363.781891 321.055664,343.075928 316.704956,322.281128 
	C314.792755,313.141541 313.379364,303.885742 312.081970,294.634705 
	C311.500122,290.485962 309.466614,288.787445 305.535034,289.010773 
	C288.843414,289.959015 272.162476,291.163635 255.459671,291.814423 
	C248.023575,292.104187 240.534180,291.466980 233.087921,290.967804 
	C214.811691,289.742676 196.532562,288.516174 178.282837,286.959290 
	C169.570328,286.216034 168.196747,287.291534 167.960999,296.120361 
	C167.416595,316.506927 165.835434,336.905151 166.256271,357.265961 
	C166.608582,374.309845 169.307098,391.252594 175.997208,407.294220 
	C179.534241,415.775360 182.421494,424.527924 185.575287,433.167694 
	C185.794128,433.767212 186.049515,434.545746 185.850357,435.077026 
	C182.055786,445.199829 179.539917,456.209106 169.190292,462.206482 
	C161.193359,466.840576 152.236404,467.905914 143.311523,466.837585 
	C132.903717,465.591644 122.529106,462.992706 115.321350,454.654633 
	C104.604416,442.257050 106.135498,425.756226 117.386307,415.123596 
	C119.753914,412.886078 122.095497,412.928986 124.980736,414.405182 
	C132.178085,418.087677 135.555542,415.692566 136.050034,407.425415 
	C136.922775,392.834717 133.531448,378.963470 129.579605,365.138702 
	C124.790794,348.385986 124.178925,331.156372 125.266380,314.002380 
	C125.839333,304.964325 128.806305,296.053589 130.959259,287.149963 
	C132.118301,282.356659 131.167526,279.935699 126.368454,278.997620 
	C93.271858,272.528564 66.060371,254.423416 39.627316,234.933350 
	C34.820896,231.389404 30.569141,226.703812 27.126202,221.797943 
	C22.757378,215.572739 24.305069,209.994431 31.577307,207.022369 
	C40.609245,203.331161 49.995804,199.730042 59.559006,198.308014 
	C72.268303,196.418167 85.291542,196.521255 98.190887,196.137405 
	C100.495979,196.068802 103.257523,197.285477 105.122864,198.769989 
	C117.371521,208.517944 129.206940,218.795441 141.618073,228.326019 
	C153.735382,237.630951 166.133072,246.621231 178.863785,255.061676 
	C189.968613,262.424194 202.488663,267.506317 215.827301,267.708862 
	C229.861084,267.921875 244.484879,261.383362 248.957581,242.290283 
	C251.841980,229.977341 249.515930,217.978134 245.601364,206.343384 
	C237.295853,181.658142 224.385696,159.286636 210.137070,137.634338 
	C209.526031,136.705795 209.045090,135.691650 208.105515,134.001312 
	C246.943192,133.138809 284.687714,128.549133 321.999878,118.362297 
	C321.999878,141.004135 321.999420,163.318695 322.000946,185.633255 
	C322.001038,187.132935 321.788422,188.676804 322.069244,190.123535 
	C322.751556,193.638611 324.262939,196.075974 328.593597,196.058151 
	C356.589661,195.942856 384.586426,195.998459 412.582977,195.998611 
	C422.821228,195.998672 433.143494,195.183868 443.274506,196.226532 
	C453.810760,197.310913 464.370056,199.486725 474.534851,202.487411 
	C484.307007,205.372177 485.489655,212.071609 479.182281,220.377441 
	C469.774292,232.766251 457.160858,241.344330 443.983459,248.789627 
	C428.523193,257.524719 412.527374,265.425995 396.292480,272.626068 
	C388.623688,276.027130 379.914703,277.242096 371.570465,278.916504 
	C362.993439,280.637695 361.691650,282.340302 364.230194,290.513031 
	C369.566650,307.693512 370.594086,325.286377 367.928040,342.935089 
	C365.701447,357.674896 361.894775,372.178436 359.739471,386.925659 
	C358.630096,394.515961 359.081116,402.458740 359.813782,410.148254 
	C360.270325,414.939362 364.046265,416.153503 368.202942,413.927582 
	C374.355347,410.632904 377.128845,411.310242 380.995850,416.974030 
	C386.047821,424.373352 388.538971,432.285339 385.949860,441.655945 
z"/>
<path fill="#ECCBBD" opacity="1.000000" stroke="none" 
	d="
M297.699402,430.691711 
	C290.234222,443.313690 282.061127,454.696259 269.433868,462.328522 
	C254.014175,471.648621 238.590225,471.613007 223.763428,462.034668 
	C206.817276,451.087189 196.213379,435.105743 189.827240,416.004089 
	C184.832245,401.063507 178.423309,386.462494 177.602890,370.530121 
	C176.812637,355.183929 176.824493,339.783752 176.916443,324.409851 
	C176.967728,315.835632 177.899979,307.266663 178.498535,297.681213 
	C219.621307,302.198364 260.872589,303.408661 302.005585,299.491455 
	C305.110596,315.043274 308.284882,329.755096 310.912506,344.563965 
	C312.404053,352.970215 313.807922,361.532196 313.841125,370.029510 
	C313.924927,391.471466 309.428192,411.907806 297.699402,430.691711 
M216.561340,389.118713 
	C212.313293,390.294525 208.033218,391.367584 203.827209,392.678284 
	C200.379227,393.752747 199.059631,396.445435 200.156464,399.716705 
	C201.120682,402.592499 203.355042,402.945587 206.498398,402.381805 
	C220.564407,399.858826 233.071198,394.158051 243.941208,385.066315 
	C244.419052,385.291656 244.752060,385.378326 244.997498,385.574585 
	C256.147888,394.488190 268.800537,400.144745 282.869385,402.277710 
	C284.672546,402.551086 287.712097,400.424805 288.628418,398.622070 
	C289.173523,397.549591 286.868622,394.792206 285.484009,393.085144 
	C284.885254,392.346954 283.393951,392.255676 282.276062,392.027222 
	C269.242157,389.364105 257.737488,383.751831 248.019409,374.558289 
	C245.289444,371.975677 242.282837,372.109741 239.724518,374.838623 
	C233.475357,381.504486 225.666214,385.618103 216.561340,389.118713 
M233.487885,437.985138 
	C235.342346,443.261627 236.934174,448.654510 239.193634,453.751495 
	C239.985168,455.537048 242.380234,457.644135 244.111984,457.707092 
	C246.070297,457.778198 249.295029,456.164215 249.919327,454.509613 
	C254.726440,441.769135 259.173248,428.884583 263.305725,415.909058 
	C263.763428,414.471924 261.982056,411.395294 260.431183,410.534302 
	C259.161041,409.829163 256.464142,410.927460 254.827850,411.927124 
	C253.795822,412.557617 253.462036,414.446014 252.969376,415.825287 
	C250.355667,423.142822 247.790802,430.477844 244.748260,439.114746 
	C241.531204,429.864594 238.559052,422.196106 236.254227,414.332062 
	C235.049118,410.220276 232.487656,409.132904 229.237305,410.287354 
	C226.033813,411.425171 225.501373,414.198120 226.752914,417.622772 
	C229.114822,424.085754 231.019745,430.715790 233.487885,437.985138 
z"/>
<path fill="#ECCBBD" opacity="1.000000" stroke="none" 
	d="
M74.395584,84.768005 
	C81.657684,85.840286 88.532845,86.560905 95.314629,87.794731 
	C98.708061,88.412102 100.954399,86.713638 101.520676,84.326073 
	C101.948334,82.522957 100.617790,79.155830 99.036942,78.208717 
	C88.446266,71.863632 77.582603,65.973724 66.799812,59.949921 
	C57.469280,54.737427 48.147457,49.508839 38.784328,44.355412 
	C34.198624,41.831459 35.168079,37.032280 34.071918,33.112598 
	C33.638607,31.563135 34.067722,29.792305 33.933853,28.136034 
	C33.121994,18.091503 39.308887,17.827066 45.569897,19.543619 
	C58.295780,23.032614 69.474274,29.875198 79.472839,38.192192 
	C94.229179,50.466805 109.140732,62.731129 122.555664,76.403427 
	C146.615936,100.925316 168.032074,127.768494 186.287292,156.945663 
	C196.329651,172.996323 205.639664,189.516724 210.252502,208.154617 
	C211.038284,211.329514 211.834198,214.592819 211.914719,217.832947 
	C212.097244,225.175354 207.776627,228.670425 200.789841,226.787964 
	C190.224396,223.941330 180.843918,218.662827 171.668854,211.953903 
	C173.823715,210.560715 175.797394,209.656006 177.266861,208.231262 
	C178.767471,206.776306 180.840530,204.731247 180.718185,203.089462 
	C180.573715,201.150620 178.752350,198.653397 176.955856,197.626022 
	C157.661942,186.592560 138.227707,175.804489 118.843376,164.928787 
	C118.341240,164.647064 117.969185,164.133484 116.510452,162.766708 
	C121.490448,163.265305 125.183228,164.052216 128.816879,163.837662 
	C130.895828,163.714890 134.527145,162.011078 134.558563,160.934464 
	C134.622284,158.749344 133.276337,155.747269 131.507690,154.441055 
	C127.441750,151.438263 122.788300,149.225113 118.348724,146.735306 
	C109.021278,141.504303 99.579895,136.465775 90.402924,130.983902 
	C87.759041,129.404572 85.857948,126.581825 83.616310,124.329163 
	C83.861610,123.955688 84.106918,123.582214 84.352226,123.208740 
	C94.496376,124.769463 104.636383,126.357910 114.787170,127.874214 
	C117.881493,128.336441 120.740402,128.235260 122.180428,124.591324 
	C123.600906,120.996841 121.297852,119.389549 118.848846,117.987167 
	C106.002243,110.630730 93.117271,103.341019 80.223099,96.068069 
	C73.636566,92.352951 66.991669,88.741348 60.401569,85.032463 
	C59.312614,84.419594 58.370201,83.546341 56.206516,81.933617 
	C63.097496,82.978951 68.533791,83.803612 74.395584,84.768005 
z"/>
<path fill="#DA5623" opacity="1.000000" stroke="none" 
	d="
M216.941742,389.015686 
	C225.666214,385.618103 233.475357,381.504486 239.724518,374.838623 
	C242.282837,372.109741 245.289444,371.975677 248.019409,374.558289 
	C257.737488,383.751831 269.242157,389.364105 282.276062,392.027222 
	C283.393951,392.255676 284.885254,392.346954 285.484009,393.085144 
	C286.868622,394.792206 289.173523,397.549591 288.628418,398.622070 
	C287.712097,400.424805 284.672546,402.551086 282.869385,402.277710 
	C268.800537,400.144745 256.147888,394.488190 244.997498,385.574585 
	C244.752060,385.378326 244.419052,385.291656 243.941208,385.066315 
	C233.071198,394.158051 220.564407,399.858826 206.498398,402.381805 
	C203.355042,402.945587 201.120682,402.592499 200.156464,399.716705 
	C199.059631,396.445435 200.379227,393.752747 203.827209,392.678284 
	C208.033218,391.367584 212.313293,390.294525 216.941742,389.015686 
z"/>
<path fill="#DA5623" opacity="1.000000" stroke="none" 
	d="
M233.301239,437.630768 
	C231.019745,430.715790 229.114822,424.085754 226.752914,417.622772 
	C225.501373,414.198120 226.033813,411.425171 229.237305,410.287354 
	C232.487656,409.132904 235.049118,410.220276 236.254227,414.332062 
	C238.559052,422.196106 241.531204,429.864594 244.748260,439.114746 
	C247.790802,430.477844 250.355667,423.142822 252.969376,415.825287 
	C253.462036,414.446014 253.795822,412.557617 254.827850,411.927124 
	C256.464142,410.927460 259.161041,409.829163 260.431183,410.534302 
	C261.982056,411.395294 263.763428,414.471924 263.305725,415.909058 
	C259.173248,428.884583 254.726440,441.769135 249.919327,454.509613 
	C249.295029,456.164215 246.070297,457.778198 244.111984,457.707092 
	C242.380234,457.644135 239.985168,455.537048 239.193634,453.751495 
	C236.934174,448.654510 235.342346,443.261627 233.301239,437.630768 
z"/>
</svg>