<svg version="1.1" id="Layer_1" xmlns="http://www.w3.org/2000/svg" xmlns:xlink="http://www.w3.org/1999/xlink" x="0px" y="0px"
	 width="100%" viewBox="0 0 297 271" enable-background="new 0 0 297 271" xml:space="preserve">
<path fill="#ECCBBD" opacity="1.000000" stroke="none" 
	d="
M298.000000,101.000000 
	C298.000000,158.308319 298.000000,215.116638 298.000000,271.962463 
	C199.068604,271.962463 100.137177,271.962463 1.102878,271.962463 
	C1.102878,181.775116 1.102878,91.550072 1.102878,1.162515 
	C99.999779,1.162515 198.999863,1.162515 298.000000,1.162515 
	C298.000000,34.196022 298.000000,67.348015 298.000000,101.000000 
M26.203951,81.485786 
	C26.384342,81.686676 26.594217,81.849586 27.141691,82.586052 
	C31.149942,85.732491 35.158195,88.878929 39.158916,92.501709 
	C39.158916,92.501709 39.495171,92.839134 39.495171,92.839134 
	C39.495171,92.839134 39.971508,92.833549 40.603550,93.157066 
	C42.053089,93.807480 43.502632,94.457893 45.243641,95.633774 
	C45.815521,95.794571 46.387405,95.955368 47.301659,96.755394 
	C48.868923,97.225792 50.436188,97.696182 52.292507,98.886795 
	C63.218716,101.891167 73.127266,99.850037 82.680099,92.978806 
	C83.106552,93.024643 83.532997,93.070488 84.249260,93.709465 
	C86.150398,95.175919 88.051537,96.642372 90.356293,98.696190 
	C91.532974,98.783119 92.709648,98.870049 94.622948,98.977898 
	C95.359764,98.985435 96.096588,98.992973 96.953255,99.778664 
	C96.325470,101.249207 95.520630,102.670746 95.097977,104.198044 
	C91.779823,116.188507 89.325241,128.499496 91.331413,140.786423 
	C92.323570,146.862930 95.430336,153.942917 99.942123,157.821518 
	C110.028175,166.492081 121.868355,172.732574 136.290344,172.884277 
	C140.457169,173.109589 144.655853,173.766129 148.783478,173.461075 
	C155.285141,172.980560 161.786850,172.114441 168.201904,170.938858 
	C177.836548,169.173248 187.484650,167.329681 196.936142,164.804703 
	C199.924530,164.006348 202.302200,160.921967 205.315628,158.312149 
	C209.599243,153.875076 213.882843,149.437988 218.946350,144.993698 
	C224.403931,143.226593 230.056366,141.896545 235.266342,139.574020 
	C240.895996,137.064407 245.224365,129.154907 244.400162,124.456825 
	C244.400162,124.456825 244.586075,124.400032 245.361786,124.597176 
	C248.168198,122.586861 247.471848,120.663353 245.155869,118.255486 
	C245.246536,118.105194 245.337204,117.954895 246.211502,117.820702 
	C248.823975,116.190384 248.729141,114.585312 246.039169,112.271072 
	C245.989944,111.529930 245.940735,110.788788 246.292511,109.706696 
	C245.917206,109.138550 245.541885,108.570404 245.034470,107.235016 
	C243.681290,104.434525 242.328110,101.634041 240.761810,98.511345 
	C240.596054,98.309288 240.397598,98.147270 239.865295,97.422615 
	C238.225815,95.982574 236.586334,94.542534 235.312119,92.486435 
	C236.562500,90.473976 241.427780,90.954224 239.404190,86.455856 
	C239.404190,86.455856 239.596558,86.419624 240.412842,86.583427 
	C240.811050,86.329430 241.553665,86.079979 241.557098,85.820786 
	C241.643600,79.269119 241.678513,72.716148 241.610367,66.164566 
	C241.606293,65.772560 240.669403,65.390259 240.039948,64.289070 
	C240.012527,63.564117 239.985107,62.839161 239.974594,61.379917 
	C239.371933,60.254322 238.769257,59.128727 238.035522,57.262543 
	C236.015320,53.786213 233.995117,50.309887 231.761795,46.511356 
	C231.596054,46.309296 231.397598,46.147285 230.856354,45.411465 
	C224.895813,39.155285 217.820801,35.121124 209.650833,31.896839 
	C199.380508,27.843647 191.041306,31.389845 183.395004,36.476021 
	C174.674240,42.276913 167.673523,60.076405 172.339691,71.996696 
	C173.945450,76.098808 173.993393,80.810715 173.849915,85.089394 
	C172.955490,85.060158 172.061066,85.030922 171.004593,84.253876 
	C169.976196,82.860840 169.083939,80.414261 167.895370,80.260681 
	C163.230469,79.657906 158.103226,78.571518 153.825165,79.879890 
	C144.842560,82.627083 136.338379,84.181465 127.655777,79.380730 
	C126.728104,78.867813 125.338615,78.852470 124.239685,79.044067 
	C118.824844,79.988220 113.435745,81.079987 107.922783,81.511467 
	C107.337410,81.024849 106.752029,80.538239 106.037170,79.329765 
	C104.969261,77.545296 103.901344,75.760826 102.951752,73.553047 
	C102.951752,73.553047 102.956833,73.113533 102.933640,72.300110 
	C102.358376,71.463280 101.783104,70.626457 101.158043,69.114075 
	C102.981552,62.986443 99.014290,56.301960 92.069725,54.232220 
	C90.470947,56.105797 88.786926,58.079273 86.531372,59.751419 
	C85.409782,59.168026 84.288185,58.584633 83.036018,57.262451 
	C82.100327,55.419415 81.562393,53.169559 80.162727,51.801064 
	C72.550743,44.358604 64.726265,37.133480 56.761803,29.511337 
	C56.596050,29.309277 56.397594,29.147268 55.823753,28.441816 
	C54.204887,27.336155 52.586021,26.230494 50.777378,24.464603 
	C50.240444,21.977518 49.703506,19.490433 49.036346,16.295477 
	C48.682541,15.474836 48.328732,14.654195 47.761803,13.511335 
	C47.596050,13.309273 47.397594,13.147264 46.891357,12.453752 
	C46.252548,11.913686 45.613735,11.373620 44.761803,10.511335 
	C44.596050,10.309273 44.397594,10.147264 43.663395,9.350193 
	C38.671940,8.079574 34.338436,9.105952 30.496553,13.241249 
	C30.284332,13.407880 30.106165,13.605251 29.999805,13.999992 
	C29.999805,13.999992 30.037495,14.166637 29.527506,14.164347 
	C29.407215,14.454053 29.286926,14.743760 28.999935,14.998156 
	C28.999935,14.998156 28.833363,14.962243 28.499668,15.207178 
	C28.288645,15.388615 28.109402,15.597342 27.999725,15.999989 
	C27.999725,15.999989 28.037413,16.166637 27.546053,16.152918 
	C27.183422,16.316219 27.056879,16.589035 26.857140,17.586571 
	C19.472054,24.893131 14.552225,33.701908 13.131553,43.898060 
	C11.206614,57.713333 16.093493,69.665848 25.176916,80.517014 
	C25.176916,80.517014 25.541965,80.846230 25.541965,80.846230 
	C25.541965,80.846230 26.033377,80.833359 25.998156,81.000061 
	C25.998156,81.000061 25.962332,81.166641 26.203951,81.485786 
M232.979660,173.979767 
	C232.979660,173.979767 232.907623,173.944733 233.654373,173.952240 
	C242.803101,169.666458 250.630585,163.806686 255.558975,154.771881 
	C257.948517,150.391357 256.206177,145.012238 251.159454,141.965729 
	C249.166641,140.771240 246.831573,139.913635 245.253799,138.310638 
	C242.176483,135.184113 241.202332,139.193970 239.236160,139.704041 
	C239.969101,141.371109 240.239594,143.698517 241.514664,144.591415 
	C247.167923,148.550323 248.064941,151.440811 242.949142,155.253677 
	C232.738159,162.864075 222.396347,170.445053 211.399780,176.814468 
	C200.292572,183.247925 188.171005,187.902481 176.782471,193.885818 
	C165.704834,199.705856 154.075699,202.963852 141.648087,202.921951 
	C132.318268,202.890518 123.035927,202.079727 114.322899,198.050690 
	C104.598045,193.553787 94.583099,189.652176 85.026451,184.833008 
	C76.273033,180.418915 67.704987,175.516144 59.530197,170.110489 
	C51.688850,164.925323 44.457634,158.817459 36.983341,152.318665 
	C38.343464,150.543259 39.360149,147.749695 41.119015,147.156433 
	C53.223919,143.073441 65.628891,140.255463 78.500320,139.975952 
	C82.743355,139.883804 84.816147,138.144577 84.972710,134.159027 
	C84.181335,129.019623 81.919197,128.068558 76.024757,129.395996 
	C68.118996,131.176407 60.114712,132.526718 52.138615,133.984482 
	C47.689785,134.797562 43.102604,135.074997 38.788918,136.323395 
	C36.194027,137.074402 33.475315,138.778137 31.729488,140.833008 
	C25.586323,148.063629 25.960381,155.329178 34.055614,161.346191 
	C44.846729,169.366989 55.649780,177.580139 67.328308,184.143845 
	C80.769554,191.698242 95.174088,197.537918 109.154839,204.133789 
	C112.461281,205.693710 115.746124,207.299408 119.154243,209.650925 
	C119.791801,210.353943 120.341789,211.549118 121.081017,211.680649 
	C126.128372,212.578659 131.193466,213.633545 136.293884,213.928772 
	C151.915512,214.833023 166.392319,210.490662 180.380600,203.894440 
	C184.678894,201.867584 189.338959,200.607925 193.959641,199.757050 
	C194.880219,201.578293 195.416229,203.778885 196.780762,205.162216 
	C210.801773,219.376541 224.855682,233.562576 239.161194,247.488586 
	C241.985779,250.238251 245.763641,252.185562 249.391693,253.883667 
	C253.087173,255.613297 257.140167,256.579041 261.135986,258.608734 
	C262.529541,262.195892 264.935394,260.861206 267.266235,259.865692 
	C270.288879,258.574738 272.760437,256.367462 271.679321,253.028366 
	C268.503815,243.220627 266.819946,232.772339 258.123169,225.421783 
	C251.552704,219.868393 245.824921,213.318604 239.716354,207.218018 
	C232.486557,199.997742 225.250595,192.783646 217.869156,185.419052 
	C218.955795,184.686905 220.488434,183.774567 221.884445,182.686874 
	C224.284134,180.817215 226.598633,178.838196 228.987793,176.975662 
	C228.987793,176.975662 228.913757,176.943848 229.651825,176.952255 
	C230.750412,175.936966 231.848999,174.921677 232.979660,173.979767 
z"/>
<path fill="#DA5623" opacity="1.000000" stroke="none" 
	d="
M240.974945,98.833557 
	C242.328110,101.634041 243.681290,104.434525 245.046875,107.917023 
	C245.336700,109.081894 245.614105,109.564774 245.891510,110.047646 
	C245.940735,110.788788 245.989944,111.529930 246.039520,113.044380 
	C245.835876,115.146652 245.631882,116.475624 245.427887,117.804596 
	C245.337204,117.954895 245.246536,118.105194 245.108978,118.873535 
	C244.903427,121.127739 244.744751,122.763885 244.586075,124.400032 
	C244.586075,124.400032 244.400162,124.456825 244.083649,124.699387 
	C240.720856,132.618576 235.926987,138.185898 227.376419,140.196426 
	C224.110443,140.964371 221.225204,143.351608 218.166458,145.000916 
	C213.882843,149.437988 209.599243,153.875076 204.765610,158.645004 
	C196.913956,162.406982 189.689560,165.670074 181.378113,166.469254 
	C172.257919,167.346176 163.286362,169.669815 154.188889,170.917145 
	C148.182861,171.740616 142.069016,171.777512 136.003433,172.166565 
	C121.868355,172.732574 110.028175,166.492081 99.942123,157.821518 
	C95.430336,153.942917 92.323570,146.862930 91.331413,140.786423 
	C89.325241,128.499496 91.779823,116.188507 95.097977,104.198044 
	C95.520630,102.670746 96.325470,101.249207 96.973534,99.030052 
	C100.675064,92.894180 104.356316,87.506920 108.037567,82.119659 
	C113.435745,81.079987 118.824844,79.988220 124.239685,79.044067 
	C125.338615,78.852470 126.728104,78.867813 127.655777,79.380730 
	C136.338379,84.181465 144.842560,82.627083 153.825165,79.879890 
	C158.103226,78.571518 163.230469,79.657906 167.895370,80.260681 
	C169.083939,80.414261 169.976196,82.860840 170.917023,84.939774 
	C169.220200,86.472656 167.610916,87.319641 165.706879,88.019577 
	C164.624313,87.545914 163.836502,87.219299 162.796753,86.573669 
	C156.424438,84.802025 151.666229,87.891800 146.535980,91.135330 
	C138.576157,94.029854 132.582214,89.377609 125.856659,86.624329 
	C116.625557,85.451401 109.409325,89.383522 107.664658,96.039658 
	C107.169739,96.303925 107.007202,96.560120 106.733360,96.992416 
	C106.658478,97.434944 106.808395,97.773384 106.948532,98.466309 
	C104.980850,103.335869 102.592155,107.730576 101.280304,112.426140 
	C100.766434,114.265488 101.921776,116.153526 99.839951,118.225182 
	C97.970375,120.085632 100.921249,126.784454 103.699936,128.142838 
	C107.809464,130.151825 111.864090,132.460709 116.206505,133.754379 
	C120.802536,135.123581 125.685196,135.676743 130.485443,136.170120 
	C134.630936,136.596191 138.870728,136.135620 143.007996,136.604187 
	C150.574554,137.461182 158.109741,136.720261 164.821106,133.673187 
	C169.435471,131.578186 171.774094,132.264893 174.013031,136.294601 
	C172.779816,137.504623 171.700195,138.421860 170.519226,139.360535 
	C170.417862,139.381989 170.356918,139.580032 170.054901,139.688751 
	C168.503555,140.253860 167.254227,140.710251 165.672592,141.108063 
	C164.893784,141.088470 164.447296,141.127472 163.679047,141.208252 
	C162.239777,141.888901 161.122238,142.527771 159.589783,143.103760 
	C152.454361,144.679428 145.704285,145.708786 138.723038,145.077606 
	C136.004684,144.831833 133.072891,146.099655 130.473984,145.554520 
	C124.917442,144.389023 119.514587,142.490814 113.856216,140.596268 
	C111.443474,139.588715 109.223297,138.877655 106.606941,138.098083 
	C104.027946,137.267105 101.845123,136.504623 98.227287,135.240875 
	C99.120384,139.492416 99.448227,142.199631 100.270760,144.747086 
	C102.465073,151.543121 108.433228,154.963684 114.072281,157.752060 
	C127.688789,164.485046 141.842682,167.682388 157.047180,162.133728 
	C165.176834,159.166916 174.643585,148.381760 174.997314,139.681793 
	C175.479187,138.257385 175.797119,137.149597 176.438110,135.778809 
	C176.202438,131.358047 176.495483,126.841019 174.922241,123.111168 
	C170.526794,112.690361 165.010941,102.638664 171.418518,90.887512 
	C172.739624,88.896881 173.746307,87.070465 174.752991,85.244049 
	C173.993393,80.810715 173.945450,76.098808 172.339691,71.996696 
	C167.673523,60.076405 174.674240,42.276913 183.395004,36.476021 
	C191.041306,31.389845 199.380508,27.843647 209.650833,31.896839 
	C217.820801,35.121124 224.895813,39.155285 231.008087,45.957100 
	C231.159805,46.502739 231.497513,46.840256 231.497513,46.840256 
	C231.497513,46.840256 231.974930,46.833553 231.974930,46.833557 
	C233.995117,50.309887 236.015320,53.786213 238.039917,57.982124 
	C238.682098,59.839203 239.319901,60.976704 239.957703,62.114204 
	C239.985107,62.839161 240.012527,63.564117 240.039536,65.110779 
	C239.891602,72.761528 239.744080,79.590576 239.596558,86.419624 
	C239.596558,86.419624 239.404190,86.455856 239.080750,86.696838 
	C236.491714,89.817841 234.187027,90.067970 231.897186,86.572800 
	C231.973816,81.325935 231.625641,76.512390 232.079086,71.775574 
	C232.894043,63.262009 229.336243,56.343895 224.829224,49.693100 
	C224.276154,48.876968 223.037048,48.525719 222.053101,47.626144 
	C221.327881,46.917698 220.665421,46.542137 219.705460,46.012268 
	C217.976700,44.891190 216.545456,43.924423 214.966507,42.662979 
	C213.880325,41.967731 212.941833,41.567158 211.646286,41.103264 
	C210.564529,41.012737 209.839813,40.985527 209.023010,40.542908 
	C205.168900,39.751701 201.407852,39.077953 197.644653,39.065826 
	C191.027344,39.044502 186.397156,42.418640 183.479294,48.386856 
	C183.377899,48.423157 183.347382,48.636379 183.062195,48.777225 
	C182.316162,49.877304 181.855316,50.836533 181.268417,52.028122 
	C181.159790,52.435860 181.177216,52.611237 181.115753,52.986820 
	C180.868103,53.566414 180.699356,53.945797 180.442139,54.389809 
	C180.353683,54.454441 180.392609,54.670071 180.049240,54.846687 
	C179.769043,60.032574 179.832199,65.041847 179.947281,70.376160 
	C180.388321,71.468391 180.777435,72.235588 181.117767,73.353455 
	C181.677185,75.152596 182.285385,76.601059 182.934921,78.418579 
	C183.039688,79.526215 183.103134,80.264801 183.103333,81.435036 
	C182.840134,83.855377 182.640167,85.844063 182.297073,88.044609 
	C182.166733,88.426437 182.179520,88.596405 182.097290,89.001480 
	C181.723679,89.824669 181.445099,90.412766 181.097824,91.218208 
	C181.029114,91.435555 180.957672,91.885811 180.647888,92.048615 
	C179.751709,93.606201 179.165283,95.000992 178.491867,96.436813 
	C178.404877,96.477844 178.392441,96.669807 178.050232,96.845345 
	C177.237244,101.797386 175.141983,106.717941 178.974792,111.479401 
	C179.050003,112.571457 179.108215,113.298424 179.162674,114.263573 
	C179.158920,114.501747 179.495193,114.839157 179.495193,114.839157 
	C179.495193,114.839157 179.971542,114.833549 180.258896,114.997124 
	C181.086365,116.107872 181.626480,117.055054 182.113022,118.301003 
	C182.337555,119.083076 182.615662,119.566383 182.951477,120.416473 
	C183.395004,122.189735 183.780792,123.596207 184.105148,125.339005 
	C184.327286,126.466980 184.610840,127.258621 184.935410,128.419220 
	C185.039810,129.526505 185.103195,130.264832 185.101990,131.391235 
	C184.831100,132.785538 184.624802,133.791763 184.286316,135.024902 
	C184.176270,135.425491 184.198395,135.599167 184.140152,136.157562 
	C183.851089,138.639725 183.642410,140.737122 183.238464,143.105957 
	C182.760910,144.181000 182.478607,144.984619 182.098633,146.046524 
	C181.775620,146.792282 181.550262,147.279755 181.225037,148.003601 
	C181.148163,148.409439 181.171143,148.578934 181.059830,149.050934 
	C178.642395,152.630386 176.359253,155.907333 174.076126,159.184296 
	C174.272186,159.617188 174.468262,160.050095 174.664337,160.483002 
	C176.809265,159.674103 178.954193,158.865189 181.530334,158.034958 
	C187.532761,159.112183 191.905609,155.744125 196.540680,153.772537 
	C199.648636,152.450516 202.216080,149.857742 205.263519,147.837341 
	C205.840988,147.663620 205.951599,147.392746 205.959030,146.764282 
	C206.398117,146.277908 206.711746,146.055725 207.263519,145.837341 
	C207.840988,145.663620 207.951599,145.392746 207.990540,144.718155 
	C211.064896,139.394623 215.433075,135.097382 220.781250,134.305130 
	C230.385330,132.882446 235.143829,127.459991 237.556549,118.896858 
	C239.439178,112.215088 236.510880,101.539848 230.053116,99.626160 
	C229.327881,98.917702 228.665421,98.542137 227.636353,98.101288 
	C225.862671,97.654831 224.455597,97.273674 222.820297,96.584900 
	C221.062698,96.240372 219.533340,96.203468 217.612076,96.099991 
	C214.781921,95.715683 212.684326,95.152771 213.003281,91.905174 
	C213.357193,88.301605 216.054642,88.861328 218.211288,89.060333 
	C222.729584,89.477264 227.216904,90.229744 231.854553,91.101364 
	C232.977051,91.939690 233.961960,92.521088 234.946854,93.102493 
	C236.586334,94.542534 238.225815,95.982574 240.012558,97.962662 
	C240.159821,98.502716 240.497513,98.840256 240.497513,98.840256 
	C240.497513,98.840256 240.974945,98.833549 240.974945,98.833557 
z"/>
<path fill="#DA5623" opacity="1.000000" stroke="none" 
	d="
M87.102898,60.052753 
	C88.786926,58.079273 90.470947,56.105797 92.069725,54.232220 
	C99.014290,56.301960 102.981552,62.986443 101.109238,69.760895 
	C101.381516,71.327332 101.702599,72.246933 102.130493,73.327881 
	C102.403343,73.691566 102.602058,73.853951 102.833435,73.976357 
	C103.901344,75.760826 104.969261,77.545296 106.017944,79.670792 
	C105.998711,80.011818 105.833359,79.962334 105.673782,80.083145 
	C105.313316,80.384338 105.150406,80.594215 104.655365,80.912674 
	C102.173126,80.796661 100.060997,80.601700 97.948906,80.406387 
	C96.577095,80.279533 95.205330,80.152184 93.672440,80.131622 
	C93.309273,80.403954 93.147263,80.602402 92.739517,80.971092 
	C91.913681,81.747444 91.373611,82.386246 90.672440,83.131622 
	C90.309273,83.403954 90.147263,83.602402 89.755249,83.977737 
	C89.331810,85.136772 89.178436,86.151611 89.131630,87.327560 
	C89.403954,87.690727 89.602402,87.852737 89.959366,88.238205 
	C90.398476,88.723289 90.711769,88.944870 91.131622,89.327560 
	C91.403954,89.690727 91.602402,89.852737 91.959366,90.238205 
	C92.398476,90.723297 92.711769,90.944870 93.131622,91.327560 
	C93.403954,91.690727 93.602402,91.852737 93.993164,92.296356 
	C94.140244,94.092552 94.127708,95.567101 93.736984,97.032745 
	C92.223427,97.385513 91.088051,97.747169 89.952675,98.108826 
	C88.051537,96.642372 86.150398,95.175919 84.049896,93.087921 
	C83.194992,91.991173 82.539452,91.515968 81.563782,91.176949 
	C74.777298,95.015968 68.360390,98.758408 60.420078,98.048523 
	C57.640274,97.800003 54.810444,98.111053 52.003456,98.166573 
	C50.436188,97.696182 48.868923,97.225792 47.096020,96.151833 
	C46.244312,95.401611 45.598244,95.254951 44.952175,95.108292 
	C43.502632,94.457893 42.053089,93.807480 40.181694,92.834213 
	C39.594818,92.309341 39.397022,92.147346 39.166447,92.025368 
	C35.158195,88.878929 31.149942,85.732491 26.981800,82.034012 
	C26.618979,81.149010 26.332453,81.043900 25.962332,81.166641 
	C25.962332,81.166641 25.998156,81.000061 25.895729,80.757217 
	C25.613905,80.313507 25.404949,80.150558 25.166431,80.025513 
	C16.093493,69.665848 11.206614,57.713333 13.131553,43.898060 
	C14.552225,33.701908 19.472054,24.893131 27.180250,17.171707 
	C27.715513,16.590998 27.893530,16.394262 28.037413,16.166637 
	C28.037413,16.166637 27.999725,15.999989 28.236477,15.917456 
	C28.593271,15.544030 28.713316,15.253137 28.833363,14.962242 
	C28.833363,14.962243 28.999935,14.998156 29.250031,14.894157 
	C29.711071,14.609742 29.890194,14.401902 30.037495,14.166637 
	C30.037495,14.166637 29.999805,13.999992 30.227261,13.923294 
	C30.817966,13.682095 30.944250,13.408291 30.833569,13.025184 
	C34.338436,9.105952 38.671940,8.079574 43.911598,9.926458 
	C44.159805,10.502725 44.497509,10.840249 44.497509,10.840249 
	C44.497509,10.840249 44.974926,10.833553 44.974926,10.833553 
	C45.613735,11.373620 46.252548,11.913686 47.025581,12.978238 
	C47.159805,13.502725 47.497509,13.840249 47.497509,13.840249 
	C47.497509,13.840249 47.974926,13.833553 47.974926,13.833553 
	C48.328732,14.654195 48.682541,15.474836 49.038864,17.034649 
	C50.001064,20.140911 46.323475,23.722851 50.967155,25.124832 
	C52.586021,26.230494 54.204887,27.336155 55.991779,28.972271 
	C56.159805,29.502728 56.497509,29.840250 56.497509,29.840250 
	C56.497509,29.840250 56.974926,29.833551 56.974926,29.833551 
	C64.726265,37.133480 72.550743,44.358604 80.162727,51.801064 
	C81.562393,53.169559 82.100327,55.419415 83.010086,58.006897 
	C81.657448,59.223095 80.330742,59.694839 78.650002,60.101357 
	C77.475159,59.682285 76.654358,59.328449 75.837311,58.736443 
	C75.663605,58.158989 75.392738,58.048374 74.730286,57.988739 
	C68.565903,51.865562 62.699730,45.920090 56.837318,39.736446 
	C56.663612,39.158997 56.392750,39.048386 55.721531,39.012253 
	C52.311100,36.554848 49.207634,34.251637 45.941292,31.637691 
	C43.834579,29.345495 42.357082,29.331562 41.483185,32.360508 
	C41.375294,32.401577 41.353130,32.631401 41.074104,32.765900 
	C41.182629,34.305019 41.570179,35.709644 41.989010,37.449478 
	C43.069008,39.198261 44.117725,40.611824 45.162682,42.263554 
	C45.158913,42.501720 45.495167,42.839142 45.495167,42.839142 
	C45.495167,42.839142 45.971500,42.833561 46.271751,43.014259 
	C53.843166,53.337940 62.330044,62.243259 73.031769,69.335007 
	C74.824333,71.681580 76.052216,70.919617 77.412476,68.903313 
	C79.148911,67.787399 80.587135,66.810471 82.263535,65.837318 
	C82.840988,65.663612 82.951599,65.392738 82.903183,64.801071 
	C82.972809,64.573669 83.051300,64.104538 83.341156,63.963570 
	C84.788315,62.565987 85.945602,61.309368 87.102898,60.052753 
M35.152916,79.453949 
	C35.316216,79.816566 35.589027,79.943115 36.590538,80.146194 
	C44.493019,87.500145 53.490349,91.727936 64.476173,88.968178 
	C69.388176,87.734230 74.087822,85.654930 79.495003,83.879517 
	C79.995842,83.308540 80.496681,82.737564 81.514763,81.909462 
	C81.731987,81.597954 81.949219,81.286446 82.488663,80.761803 
	C82.690727,80.596046 82.852737,80.397598 83.586510,79.857979 
	C85.779823,77.230301 87.973137,74.602623 90.488663,71.761803 
	C90.690727,71.596046 90.852737,71.397598 91.497223,70.918663 
	C91.720360,70.610901 91.943497,70.303146 92.808594,69.812569 
	C93.414909,68.436111 94.107262,67.085144 94.531036,65.654610 
	C94.591789,65.449532 92.880913,64.421021 92.792778,64.516289 
	C91.836655,65.549835 91.022011,66.718704 90.216797,67.883858 
	C90.045555,68.131653 90.068130,68.513382 89.390854,69.156754 
	C85.189789,72.501198 80.988731,75.845642 76.126175,79.148895 
	C75.658653,79.559692 75.191124,79.970482 74.109024,80.537987 
	C73.740547,80.747536 73.372070,80.957077 72.257835,81.042282 
	C71.505470,81.083679 70.753105,81.125076 69.320518,81.278137 
	C67.548599,82.240967 65.776680,83.203804 63.177311,84.041100 
	C60.135941,83.326576 57.094574,82.612053 53.966984,81.217819 
	C52.645927,81.200745 51.324871,81.183662 49.387756,80.840927 
	C44.869686,76.552162 40.351620,72.263397 35.841084,67.498291 
	C35.663609,67.159004 35.392746,67.048393 34.411369,66.774330 
	C32.608383,62.496010 29.929077,58.366570 29.172054,53.910553 
	C27.161764,42.077488 31.739721,31.843849 38.923672,22.164682 
	C39.300732,20.656929 39.677792,19.149176 40.054852,17.641422 
	C38.491474,18.143782 36.571579,18.243666 35.446239,19.240520 
	C33.648544,20.832964 32.378719,23.021322 30.271420,25.270964 
	C28.423265,28.121786 26.389977,30.871229 24.762678,33.842991 
	C20.388399,41.831264 19.667040,50.268337 22.059473,59.599770 
	C22.337570,60.083080 22.615667,60.566387 23.007263,61.770535 
	C26.393652,66.855522 29.780043,71.940514 33.176918,77.517014 
	C33.176918,77.517014 33.541965,77.846230 33.541965,77.846230 
	C33.541965,77.846230 34.033379,77.833359 33.998123,78.000069 
	C33.998123,78.000069 33.962261,78.166634 34.207180,78.500343 
	C34.388615,78.711380 34.597343,78.890625 34.999989,79.000267 
	C34.999989,79.000267 35.166641,78.962593 35.152916,79.453949 
M64.750145,73.289612 
	C56.868778,65.509766 48.987415,57.729916 40.983925,49.264194 
	C39.802490,48.601849 38.621056,47.939503 36.950260,47.002808 
	C37.077435,48.920834 37.141342,49.884632 37.362095,51.729233 
	C37.667873,57.999237 41.406960,62.517506 45.158916,67.501709 
	C45.158916,67.501709 45.495171,67.839134 45.495171,67.839134 
	C45.495171,67.839134 45.971508,67.833549 46.499920,68.084503 
	C46.722095,68.398125 46.944271,68.711746 47.158916,69.501709 
	C47.158916,69.501709 47.495171,69.839134 47.495171,69.839134 
	C47.495171,69.839134 47.971508,69.833549 48.606133,70.158928 
	C53.337502,74.288902 58.806179,75.833031 65.574806,74.934433 
	C65.867882,74.834404 66.160950,74.734367 66.454025,74.634338 
	C65.983475,74.384773 65.512924,74.135208 64.750145,73.289612 
z"/>
<path fill="#DA5623" opacity="1.000000" stroke="none" 
	d="
M36.958290,153.115097 
	C44.457634,158.817459 51.688850,164.925323 59.530197,170.110489 
	C67.704987,175.516144 76.273033,180.418915 85.026451,184.833008 
	C94.583099,189.652176 104.598045,193.553787 114.322899,198.050690 
	C123.035927,202.079727 132.318268,202.890518 141.648087,202.921951 
	C154.075699,202.963852 165.704834,199.705856 176.782471,193.885818 
	C188.171005,187.902481 200.292572,183.247925 211.399780,176.814468 
	C222.396347,170.445053 232.738159,162.864075 242.949142,155.253677 
	C248.064941,151.440811 247.167923,148.550323 241.514664,144.591415 
	C240.239594,143.698517 239.969101,141.371109 239.236160,139.704041 
	C241.202332,139.193970 242.176483,135.184113 245.253799,138.310638 
	C246.831573,139.913635 249.166641,140.771240 251.566528,142.403900 
	C252.973938,147.102844 255.919525,151.379608 251.974731,155.620132 
	C249.348465,158.443268 246.762329,161.315842 243.974335,163.973373 
	C240.381577,167.398026 236.605011,170.629852 232.907623,173.944733 
	C232.907623,173.944733 232.979660,173.979767 232.634811,173.992249 
	C231.164551,174.984451 230.039154,175.964142 228.913757,176.943848 
	C228.913757,176.943848 228.987793,176.975662 228.582352,176.980301 
	C226.496597,177.555023 224.652390,177.849792 223.161087,178.737427 
	C206.767487,188.495010 190.035950,197.429138 172.140076,204.328827 
	C160.379715,208.863007 148.631912,211.699463 136.114258,210.939087 
	C130.402603,210.592148 124.730789,209.589371 119.040909,208.884033 
	C115.746124,207.299408 112.461281,205.693710 109.154839,204.133789 
	C95.174088,197.537918 80.769554,191.698242 67.328308,184.143845 
	C55.649780,177.580139 44.846729,169.366989 34.055614,161.346191 
	C25.960381,155.329178 25.586323,148.063629 31.729488,140.833008 
	C33.475315,138.778137 36.194027,137.074402 38.788918,136.323395 
	C43.102604,135.074997 47.689785,134.797562 52.138615,133.984482 
	C60.114712,132.526718 68.118996,131.176407 76.024757,129.395996 
	C81.919197,128.068558 84.181335,129.019623 84.605537,134.717346 
	C82.207108,136.182755 80.187073,137.844299 78.142792,137.874695 
	C64.781593,138.073303 52.033878,141.392242 39.392952,145.179321 
	C37.678020,145.693115 36.144733,147.765747 35.216873,149.488068 
	C34.842632,150.182755 36.322319,151.876190 36.958290,153.115097 
z"/>
<path fill="#ECCBBD" opacity="1.000000" stroke="none" 
	d="
M119.097580,209.267487 
	C124.730789,209.589371 130.402603,210.592148 136.114258,210.939087 
	C148.631912,211.699463 160.379715,208.863007 172.140076,204.328827 
	C190.035950,197.429138 206.767487,188.495010 223.161087,178.737427 
	C224.652390,177.849792 226.496597,177.555023 228.562897,176.945007 
	C226.598633,178.838196 224.284134,180.817215 221.884445,182.686874 
	C220.488434,183.774567 218.955795,184.686905 217.869156,185.419052 
	C225.250595,192.783646 232.486557,199.997742 239.716354,207.218018 
	C245.824921,213.318604 251.552704,219.868393 258.123169,225.421783 
	C266.819946,232.772339 268.503815,243.220627 271.679321,253.028366 
	C272.760437,256.367462 270.288879,258.574738 267.266235,259.865692 
	C264.935394,260.861206 262.529541,262.195892 261.503052,258.289856 
	C267.836548,257.953522 269.984680,256.652985 268.833923,252.447052 
	C266.542725,244.072845 265.270111,235.148346 258.289520,228.707108 
	C252.980713,223.808441 248.067825,218.483276 242.906662,213.421402 
	C235.041885,205.707947 226.948685,198.217209 219.331253,190.268906 
	C217.433701,188.288940 215.855591,187.175323 214.231216,189.157562 
	C213.194534,190.422684 213.349014,193.008820 213.651443,194.893204 
	C213.824631,195.972275 215.347946,196.847198 216.288910,197.788544 
	C228.301331,209.805908 240.305161,221.831894 252.341583,233.825165 
	C256.416870,237.885849 259.135040,242.475723 258.713776,249.717529 
	C253.477325,246.832260 248.082932,245.112610 244.389694,241.602859 
	C230.233261,228.149750 216.568222,214.175934 202.853348,200.264771 
	C199.964844,197.334915 197.193878,196.911362 193.833374,198.996964 
	C189.338959,200.607925 184.678894,201.867584 180.380600,203.894440 
	C166.392319,210.490662 151.915512,214.833023 136.293884,213.928772 
	C131.193466,213.633545 126.128372,212.578659 121.081017,211.680649 
	C120.341789,211.549118 119.791801,210.353943 119.097580,209.267487 
z"/>
<path fill="#DA5623" opacity="1.000000" stroke="none" 
	d="
M193.896515,199.377014 
	C197.193878,196.911362 199.964844,197.334915 202.853348,200.264771 
	C216.568222,214.175934 230.233261,228.149750 244.389694,241.602859 
	C248.082932,245.112610 253.477325,246.832260 258.713776,249.717529 
	C259.135040,242.475723 256.416870,237.885849 252.341583,233.825165 
	C240.305161,221.831894 228.301331,209.805908 216.288910,197.788544 
	C215.347946,196.847198 213.824631,195.972275 213.651443,194.893204 
	C213.349014,193.008820 213.194534,190.422684 214.231216,189.157562 
	C215.855591,187.175323 217.433701,188.288940 219.331253,190.268906 
	C226.948685,198.217209 235.041885,205.707947 242.906662,213.421402 
	C248.067825,218.483276 252.980713,223.808441 258.289520,228.707108 
	C265.270111,235.148346 266.542725,244.072845 268.833923,252.447052 
	C269.984680,256.652985 267.836548,257.953522 261.453369,257.925110 
	C257.140167,256.579041 253.087173,255.613297 249.391693,253.883667 
	C245.763641,252.185562 241.985779,250.238251 239.161194,247.488586 
	C224.855682,233.562576 210.801773,219.376541 196.780762,205.162216 
	C195.416229,203.778885 194.880219,201.578293 193.896515,199.377014 
z"/>
<path fill="#ECCBBD" opacity="1.000000" stroke="none" 
	d="
M94.115173,97.041641 
	C94.127708,95.567101 94.140244,94.092552 93.996483,92.057648 
	C93.661621,91.157516 93.389908,91.047241 93.025055,91.166451 
	C92.711769,90.944870 92.398476,90.723297 91.962692,89.999496 
	C91.661621,89.157516 91.389908,89.047241 91.025055,89.166451 
	C90.711769,88.944870 90.398476,88.723289 89.962692,87.999496 
	C89.661621,87.157516 89.389908,87.047241 89.025055,87.166451 
	C89.178436,86.151611 89.331810,85.136772 89.993958,83.981064 
	C90.842484,83.661621 90.952759,83.389908 90.833549,83.025055 
	C91.373611,82.386246 91.913681,81.747444 92.978226,80.974411 
	C93.842484,80.661621 93.952759,80.389908 93.833549,80.025055 
	C95.205330,80.152184 96.577095,80.279533 97.948906,80.406387 
	C100.060997,80.601700 102.173126,80.796661 104.901627,80.906845 
	C105.850990,80.618980 105.956100,80.332458 105.833359,79.962334 
	C105.833359,79.962334 105.998711,80.011818 106.082687,80.031723 
	C106.752029,80.538239 107.337410,81.024849 107.980179,81.815567 
	C104.356316,87.506920 100.675064,92.894180 96.913605,98.640976 
	C96.096588,98.992973 95.359764,98.985435 94.300903,98.649071 
	C94.024292,97.894043 94.069733,97.467842 94.115173,97.041641 
z"/>
<path fill="#ECCBBD" opacity="1.000000" stroke="none" 
	d="
M136.146881,172.525421 
	C142.069016,171.777512 148.182861,171.740616 154.188889,170.917145 
	C163.286362,169.669815 172.257919,167.346176 181.378113,166.469254 
	C189.689560,165.670074 196.913956,162.406982 204.587463,158.930817 
	C202.302200,160.921967 199.924530,164.006348 196.936142,164.804703 
	C187.484650,167.329681 177.836548,169.173248 168.201904,170.938858 
	C161.786850,172.114441 155.285141,172.980560 148.783478,173.461075 
	C144.655853,173.766129 140.457169,173.109589 136.146881,172.525421 
z"/>
<path fill="#ECCBBD" opacity="1.000000" stroke="none" 
	d="
M36.970818,152.716888 
	C36.322319,151.876190 34.842632,150.182755 35.216873,149.488068 
	C36.144733,147.765747 37.678020,145.693115 39.392952,145.179321 
	C52.033878,141.392242 64.781593,138.073303 78.142792,137.874695 
	C80.187073,137.844299 82.207108,136.182755 84.564827,135.114090 
	C84.816147,138.144577 82.743355,139.883804 78.500320,139.975952 
	C65.628891,140.255463 53.223919,143.073441 41.119015,147.156433 
	C39.360149,147.749695 38.343464,150.543259 36.970818,152.716888 
z"/>
<path fill="#ECCBBD" opacity="1.000000" stroke="none" 
	d="
M233.281006,173.948486 
	C236.605011,170.629852 240.381577,167.398026 243.974335,163.973373 
	C246.762329,161.315842 249.348465,158.443268 251.974731,155.620132 
	C255.919525,151.379608 252.973938,147.102844 251.928650,142.441345 
	C256.206177,145.012238 257.948517,150.391357 255.558975,154.771881 
	C250.630585,163.806686 242.803101,169.666458 233.281006,173.948486 
z"/>
<path fill="#ECCBBD" opacity="1.000000" stroke="none" 
	d="
M218.556396,144.997314 
	C221.225204,143.351608 224.110443,140.964371 227.376419,140.196426 
	C235.926987,138.185898 240.720856,132.618576 244.062531,124.794273 
	C245.224365,129.154907 240.895996,137.064407 235.266342,139.574020 
	C230.056366,141.896545 224.403931,143.226593 218.556396,144.997314 
z"/>
<path fill="#ECCBBD" opacity="1.000000" stroke="none" 
	d="
M52.147980,98.526688 
	C54.810444,98.111053 57.640274,97.800003 60.420078,98.048523 
	C68.360390,98.758408 74.777298,95.015968 81.609070,91.482620 
	C81.997292,92.063484 82.020103,92.474854 82.042923,92.886215 
	C73.127266,99.850037 63.218716,101.891167 52.147980,98.526688 
z"/>
<path fill="#ECCBBD" opacity="1.000000" stroke="none" 
	d="
M240.004700,86.501526 
	C239.744080,79.590576 239.891602,72.761528 240.102844,65.467957 
	C240.669403,65.390259 241.606293,65.772560 241.610367,66.164566 
	C241.678513,72.716148 241.643600,79.269119 241.557098,85.820786 
	C241.553665,86.079979 240.811050,86.329430 240.004700,86.501526 
z"/>
<path fill="#ECCBBD" opacity="1.000000" stroke="none" 
	d="
M166.001633,88.166626 
	C167.610916,87.319641 169.220200,86.472656 170.998047,85.313683 
	C172.061066,85.030922 172.955490,85.060158 174.301453,85.166718 
	C173.746307,87.070465 172.739624,88.896881 171.093613,90.741791 
	C168.970078,89.895729 167.485855,89.031181 166.001633,88.166626 
z"/>
<path fill="#ECCBBD" opacity="1.000000" stroke="none" 
	d="
M231.833649,87.040703 
	C234.187027,90.067970 236.491714,89.817841 239.049896,86.789719 
	C241.427780,90.954224 236.562500,90.473976 235.129486,92.794464 
	C233.961960,92.521088 232.977051,91.939690 231.858917,90.754684 
	C231.761688,89.114296 231.797668,88.077499 231.833649,87.040703 
z"/>
<path fill="#ECCBBD" opacity="1.000000" stroke="none" 
	d="
M79.004036,60.166584 
	C80.330742,59.694839 81.657448,59.223095 83.075378,58.376293 
	C84.288185,58.584633 85.409782,59.168026 86.817139,59.902084 
	C85.945602,61.309368 84.788315,62.565987 83.174217,63.672142 
	C81.479622,62.403316 80.241829,61.284950 79.004036,60.166584 
z"/>
<path fill="#ECCBBD" opacity="1.000000" stroke="none" 
	d="
M50.872269,24.794718 
	C46.323475,23.722851 50.001064,20.140911 49.103973,17.388584 
	C49.703506,19.490433 50.240444,21.977518 50.872269,24.794718 
z"/>
<path fill="#ECCBBD" opacity="1.000000" stroke="none" 
	d="
M244.973938,124.498604 
	C244.744751,122.763885 244.903427,121.127739 245.139847,119.135025 
	C247.471848,120.663353 248.168198,122.586861 244.973938,124.498604 
z"/>
<path fill="#ECCBBD" opacity="1.000000" stroke="none" 
	d="
M245.819687,117.812653 
	C245.631882,116.475624 245.835876,115.146652 246.103210,113.410477 
	C248.729141,114.585312 248.823975,116.190384 245.819687,117.812653 
z"/>
<path fill="#ECCBBD" opacity="1.000000" stroke="none" 
	d="
M229.282791,176.948044 
	C230.039154,175.964142 231.164551,174.984451 232.618774,173.955566 
	C231.848999,174.921677 230.750412,175.936966 229.282791,176.948044 
z"/>
<path fill="#DA5623" opacity="1.000000" stroke="none" 
	d="
M93.736984,97.032745 
	C94.069733,97.467842 94.024292,97.894043 93.932587,98.638611 
	C92.709648,98.870049 91.532974,98.783119 90.154480,98.402512 
	C91.088051,97.747169 92.223427,97.385513 93.736984,97.032745 
z"/>
<path fill="#ECCBBD" opacity="1.000000" stroke="none" 
	d="
M239.966156,61.747059 
	C239.319901,60.976704 238.682098,59.839203 238.105438,58.352417 
	C238.769257,59.128727 239.371933,60.254322 239.966156,61.747059 
z"/>
<path fill="#ECCBBD" opacity="1.000000" stroke="none" 
	d="
M102.023689,73.166542 
	C101.702599,72.246933 101.381516,71.327332 101.134132,70.098679 
	C101.783104,70.626457 102.358376,71.463280 102.709793,72.682083 
	C102.485947,73.064049 102.023689,73.166542 102.023689,73.166542 
z"/>
<path fill="#ECCBBD" opacity="1.000000" stroke="none" 
	d="
M246.092010,109.877167 
	C245.614105,109.564774 245.336700,109.081894 245.112930,108.300644 
	C245.541885,108.570404 245.917206,109.138550 246.092010,109.877167 
z"/>
<path fill="#DA5623" opacity="1.000000" stroke="none" 
	d="
M45.097908,95.371033 
	C45.598244,95.254951 46.244312,95.401611 46.924835,95.832214 
	C46.387405,95.955368 45.815521,95.794571 45.097908,95.371033 
z"/>
<path fill="#DA5623" opacity="1.000000" stroke="none" 
	d="
M82.361511,92.932510 
	C82.020103,92.474854 81.997292,92.063484 81.929199,91.346451 
	C82.539452,91.515968 83.194992,91.991173 83.904991,92.791351 
	C83.532997,93.070488 83.106552,93.024643 82.361511,92.932510 
z"/>
<path fill="#ECCBBD" opacity="1.000000" stroke="none" 
	d="
M30.665062,13.133217 
	C30.944250,13.408291 30.817966,13.682095 30.208382,13.839979 
	C30.106165,13.605251 30.284332,13.407880 30.665062,13.133217 
z"/>
<path fill="#ECCBBD" opacity="1.000000" stroke="none" 
	d="
M44.868362,10.672444 
	C44.974926,10.833553 44.497509,10.840249 44.497509,10.840249 
	C44.497509,10.840249 44.159805,10.502725 44.163124,10.264018 
	C44.397594,10.147264 44.596050,10.309273 44.868362,10.672444 
z"/>
<path fill="#ECCBBD" opacity="1.000000" stroke="none" 
	d="
M56.868362,29.672443 
	C56.974926,29.833551 56.497509,29.840250 56.497509,29.840250 
	C56.497509,29.840250 56.159805,29.502728 56.163124,29.264019 
	C56.397594,29.147268 56.596050,29.309277 56.868362,29.672443 
z"/>
<path fill="#DA5623" opacity="1.000000" stroke="none" 
	d="
M27.791733,16.159779 
	C27.893530,16.394262 27.715513,16.590998 27.334892,16.864105 
	C27.056879,16.589035 27.183422,16.316219 27.791733,16.159779 
z"/>
<path fill="#ECCBBD" opacity="1.000000" stroke="none" 
	d="
M28.666515,15.084710 
	C28.713316,15.253137 28.593271,15.544030 28.217583,15.834144 
	C28.109402,15.597342 28.288645,15.388615 28.666515,15.084710 
z"/>
<path fill="#ECCBBD" opacity="1.000000" stroke="none" 
	d="
M47.868362,13.672444 
	C47.974926,13.833553 47.497509,13.840249 47.497509,13.840249 
	C47.497509,13.840249 47.159805,13.502725 47.163124,13.264018 
	C47.397594,13.147264 47.596050,13.309273 47.868362,13.672444 
z"/>
<path fill="#DA5623" opacity="1.000000" stroke="none" 
	d="
M29.782501,14.165492 
	C29.890194,14.401902 29.711071,14.609742 29.333382,14.911813 
	C29.286926,14.743760 29.407215,14.454053 29.782501,14.165492 
z"/>
<path fill="#DA5623" opacity="1.000000" stroke="none" 
	d="
M102.130493,73.327881 
	C102.023689,73.166542 102.485947,73.064049 102.721390,73.088791 
	C102.956833,73.113533 102.951752,73.553047 102.892593,73.764702 
	C102.602058,73.853951 102.403343,73.691566 102.130493,73.327881 
z"/>
<path fill="#DA5623" opacity="1.000000" stroke="none" 
	d="
M25.171673,80.271263 
	C25.404949,80.150558 25.613905,80.313507 25.913340,80.673859 
	C26.033377,80.833359 25.541965,80.846230 25.541965,80.846230 
	C25.541965,80.846230 25.176916,80.517014 25.171673,80.271263 
z"/>
<path fill="#ECCBBD" opacity="1.000000" stroke="none" 
	d="
M26.083141,81.326218 
	C26.332453,81.043900 26.618979,81.149010 26.827744,81.728241 
	C26.594217,81.849586 26.384342,81.686676 26.083141,81.326218 
z"/>
<path fill="#ECCBBD" opacity="1.000000" stroke="none" 
	d="
M231.868362,46.672455 
	C231.974930,46.833553 231.497513,46.840256 231.497513,46.840256 
	C231.497513,46.840256 231.159805,46.502739 231.163116,46.264034 
	C231.397598,46.147285 231.596054,46.309296 231.868362,46.672455 
z"/>
<path fill="#DA5623" opacity="1.000000" stroke="none" 
	d="
M39.162682,92.263535 
	C39.397022,92.147346 39.594818,92.309341 39.865669,92.672455 
	C39.971508,92.833549 39.495171,92.839134 39.495171,92.839134 
	C39.495171,92.839134 39.158916,92.501709 39.162682,92.263535 
z"/>
<path fill="#ECCBBD" opacity="1.000000" stroke="none" 
	d="
M240.868378,98.672447 
	C240.974945,98.833549 240.497513,98.840256 240.497513,98.840256 
	C240.497513,98.840256 240.159821,98.502716 240.163132,98.264008 
	C240.397598,98.147270 240.596054,98.309288 240.868378,98.672447 
z"/>
<path fill="#ECCBBD" opacity="1.000000" stroke="none" 
	d="
M231.897186,86.572800 
	C231.797668,88.077499 231.761688,89.114296 231.721313,90.497772 
	C227.216904,90.229744 222.729584,89.477264 218.211288,89.060333 
	C216.054642,88.861328 213.357193,88.301605 213.003281,91.905174 
	C212.684326,95.152771 214.781921,95.715683 217.721024,96.425049 
	C219.830750,96.841957 221.439636,96.867233 223.048523,96.892517 
	C224.455597,97.273674 225.862671,97.654831 227.715698,98.397797 
	C228.813049,99.159409 229.464478,99.559227 230.115891,99.959045 
	C236.510880,101.539848 239.439178,112.215088 237.556549,118.896858 
	C235.143829,127.459991 230.385330,132.882446 220.781250,134.305130 
	C215.433075,135.097382 211.064896,139.394623 207.829437,144.824005 
	C207.309341,145.405197 207.147339,145.602982 207.025360,145.833557 
	C206.711746,146.055725 206.398117,146.277908 205.797943,146.870117 
	C205.309341,147.405197 205.147339,147.602982 205.025360,147.833557 
	C202.216080,149.857742 199.648636,152.450516 196.540680,153.772537 
	C191.905609,155.744125 187.532761,159.112183 181.274719,157.759888 
	C180.525421,155.472580 180.462936,153.439041 180.414307,151.428604 
	C180.428131,151.451706 180.378586,151.472580 180.721939,151.341522 
	C181.108246,150.389771 181.151184,149.569107 181.194122,148.748428 
	C181.171143,148.578934 181.148163,148.409439 181.592148,148.042297 
	C182.464569,147.624298 182.870041,147.403931 183.275497,147.183563 
	C182.915771,146.718460 182.556030,146.253357 182.196289,145.788254 
	C182.478607,144.984619 182.760910,144.181000 183.664459,143.088745 
	C187.043854,140.431900 186.698807,138.092468 184.220535,135.772827 
	C184.198395,135.599167 184.176270,135.425491 184.666687,135.044220 
	C187.769577,133.550232 187.651672,132.272797 185.166580,131.003159 
	C185.103195,130.264832 185.039810,129.526505 185.165802,128.214539 
	C184.958984,126.761490 184.562775,125.882088 184.166565,125.002678 
	C183.780792,123.596207 183.395004,122.189735 183.151825,120.245445 
	C182.918472,119.139168 182.542526,118.570702 182.166580,118.002235 
	C181.626480,117.055054 181.086365,116.107872 180.153046,114.836037 
	C179.594833,114.309364 179.397018,114.147369 179.166443,114.025398 
	C179.108215,113.298424 179.050003,112.571457 178.985901,111.005569 
	C178.784164,105.667709 178.588303,101.168755 178.392441,96.669807 
	C178.392441,96.669807 178.404877,96.477844 178.878204,96.544640 
	C179.886932,95.036232 180.422302,93.461021 180.957672,91.885811 
	C180.957672,91.885811 181.029114,91.435555 181.426727,91.200516 
	C181.947021,90.232452 182.069672,89.499413 182.192322,88.766373 
	C182.179520,88.596405 182.166733,88.426437 182.710770,88.032608 
	C185.894150,85.500793 186.034866,83.229752 183.166565,81.003380 
	C183.103134,80.264801 183.039688,79.526215 183.157715,78.198196 
	C182.614975,76.073425 181.890762,74.538109 181.166565,73.002785 
	C180.777435,72.235588 180.388321,71.468391 180.223190,70.059364 
	C180.429001,64.501709 180.410812,59.585892 180.392609,54.670071 
	C180.392609,54.670071 180.353683,54.454441 180.758713,54.537155 
	C181.546936,54.439346 181.930130,54.258823 182.313324,54.078308 
	C181.940430,53.647743 181.567535,53.217178 181.194656,52.786613 
	C181.177216,52.611237 181.159790,52.435860 181.685364,52.038975 
	C182.601379,50.757103 182.974380,49.696743 183.347382,48.636383 
	C183.347382,48.636379 183.377899,48.423157 183.826111,48.530689 
	C186.703079,46.750477 188.886078,43.844963 191.611771,43.186764 
	C197.294235,41.814571 203.263626,41.630539 209.115112,40.958313 
	C209.839813,40.985527 210.564529,41.012737 211.744141,41.422272 
	C213.170776,42.188953 214.142487,42.573307 215.114197,42.957661 
	C216.545456,43.924423 217.976700,44.891190 219.784790,46.308769 
	C220.813049,47.159405 221.464462,47.559219 222.115875,47.959034 
	C223.037048,48.525719 224.276154,48.876968 224.829224,49.693100 
	C229.336243,56.343895 232.894043,63.262009 232.079086,71.775574 
	C231.625641,76.512390 231.973816,81.325935 231.897186,86.572800 
z"/>
<path fill="#ECCBBD" opacity="1.000000" stroke="none" 
	d="
M165.706879,88.019577 
	C167.485855,89.031181 168.970078,89.895729 170.779205,90.906006 
	C165.010941,102.638664 170.526794,112.690361 174.922241,123.111168 
	C176.495483,126.841019 176.202438,131.358047 176.113449,135.768402 
	C175.032684,136.014603 174.599655,136.008194 174.166641,136.001801 
	C171.774094,132.264893 169.435471,131.578186 164.821106,133.673187 
	C158.109741,136.720261 150.574554,137.461182 143.007996,136.604187 
	C138.870728,136.135620 134.630936,136.596191 130.485443,136.170120 
	C125.685196,135.676743 120.802536,135.123581 116.206505,133.754379 
	C111.864090,132.460709 107.809464,130.151825 103.699936,128.142838 
	C100.921249,126.784454 97.970375,120.085632 99.839951,118.225182 
	C101.921776,116.153526 100.766434,114.265488 101.280304,112.426140 
	C102.592155,107.730576 104.980850,103.335869 106.955009,98.160339 
	C106.966904,97.296021 106.962540,97.092171 106.958168,96.888329 
	C107.007202,96.560120 107.169739,96.303925 108.003632,95.982361 
	C113.081329,90.261765 119.480606,88.384262 126.103683,86.948036 
	C132.582214,89.377609 138.576157,94.029854 146.851166,91.273178 
	C152.701538,89.779236 157.875122,88.335968 163.048691,86.892693 
	C163.836502,87.219299 164.624313,87.545914 165.706879,88.019577 
z"/>
<path fill="#ECCBBD" opacity="1.000000" stroke="none" 
	d="
M114.048775,140.892761 
	C119.514587,142.490814 124.917442,144.389023 130.473984,145.554520 
	C133.072891,146.099655 136.004684,144.831833 138.723038,145.077606 
	C145.704285,145.708786 152.454361,144.679428 159.671600,143.394989 
	C163.041473,145.256088 163.776672,143.590485 164.000793,141.166489 
	C164.447296,141.127472 164.893784,141.088470 165.760849,141.404175 
	C168.469879,142.750885 170.387878,143.032944 170.356918,139.580032 
	C170.356918,139.580032 170.417862,139.381989 170.916107,139.558716 
	C172.554016,139.823105 173.693695,139.910767 174.833359,139.998413 
	C174.643585,148.381760 165.176834,159.166916 157.047180,162.133728 
	C141.842682,167.682388 127.688789,164.485046 114.072281,157.752060 
	C108.433228,154.963684 102.465073,151.543121 100.270760,144.747086 
	C99.448227,142.199631 99.120384,139.492416 98.227287,135.240875 
	C101.845123,136.504623 104.027946,137.267105 106.697418,138.420868 
	C109.126534,140.646500 110.784508,143.419495 114.048775,140.892761 
z"/>
<path fill="#ECCBBD" opacity="1.000000" stroke="none" 
	d="
M209.023010,40.542908 
	C203.263626,41.630539 197.294235,41.814571 191.611771,43.186764 
	C188.886078,43.844963 186.703079,46.750477 183.927490,48.494385 
	C186.397156,42.418640 191.027344,39.044502 197.644653,39.065826 
	C201.407852,39.077953 205.168900,39.751701 209.023010,40.542908 
z"/>
<path fill="#ECCBBD" opacity="1.000000" stroke="none" 
	d="
M125.856659,86.624329 
	C119.480606,88.384262 113.081329,90.261765 108.222511,95.902267 
	C109.409325,89.383522 116.625557,85.451401 125.856659,86.624329 
z"/>
<path fill="#ECCBBD" opacity="1.000000" stroke="none" 
	d="
M180.400482,151.405502 
	C180.462936,153.439041 180.525421,155.472580 180.843506,157.781189 
	C178.954193,158.865189 176.809265,159.674103 174.664337,160.483002 
	C174.468262,160.050095 174.272186,159.617188 174.076126,159.184296 
	C176.359253,155.907333 178.642395,152.630386 181.059830,149.050934 
	C181.151184,149.569107 181.108246,150.389771 180.751740,151.328613 
	C180.438202,151.446777 180.400482,151.405502 180.400482,151.405502 
z"/>
<path fill="#ECCBBD" opacity="1.000000" stroke="none" 
	d="
M162.796753,86.573669 
	C157.875122,88.335968 152.701538,89.779236 147.212784,91.084671 
	C151.666229,87.891800 156.424438,84.802025 162.796753,86.573669 
z"/>
<path fill="#ECCBBD" opacity="1.000000" stroke="none" 
	d="
M180.049240,54.846687 
	C180.410812,59.585892 180.429001,64.501709 180.171280,69.734329 
	C179.832199,65.041847 179.769043,60.032574 180.049240,54.846687 
z"/>
<path fill="#ECCBBD" opacity="1.000000" stroke="none" 
	d="
M178.050232,96.845345 
	C178.588303,101.168755 178.784164,105.667709 178.968918,110.640488 
	C175.141983,106.717941 177.237244,101.797386 178.050232,96.845345 
z"/>
<path fill="#ECCBBD" opacity="1.000000" stroke="none" 
	d="
M113.856216,140.596268 
	C110.784508,143.419495 109.126534,140.646500 107.093597,138.489365 
	C109.223297,138.877655 111.443474,139.588715 113.856216,140.596268 
z"/>
<path fill="#ECCBBD" opacity="1.000000" stroke="none" 
	d="
M174.997314,139.681793 
	C173.693695,139.910767 172.554016,139.823105 171.017471,139.537262 
	C171.700195,138.421860 172.779816,137.504623 174.013031,136.294601 
	C174.599655,136.008194 175.032684,136.014603 175.790375,136.031403 
	C175.797119,137.149597 175.479187,138.257385 174.997314,139.681793 
z"/>
<path fill="#ECCBBD" opacity="1.000000" stroke="none" 
	d="
M183.103333,81.435036 
	C186.034866,83.229752 185.894150,85.500793 182.853897,87.820740 
	C182.640167,85.844063 182.840134,83.855377 183.103333,81.435036 
z"/>
<path fill="#ECCBBD" opacity="1.000000" stroke="none" 
	d="
M184.140152,136.157562 
	C186.698807,138.092468 187.043854,140.431900 183.859711,142.817322 
	C183.642410,140.737122 183.851089,138.639725 184.140152,136.157562 
z"/>
<path fill="#ECCBBD" opacity="1.000000" stroke="none" 
	d="
M170.054901,139.688751 
	C170.387878,143.032944 168.469879,142.750885 166.093155,141.462769 
	C167.254227,140.710251 168.503555,140.253860 170.054901,139.688751 
z"/>
<path fill="#ECCBBD" opacity="1.000000" stroke="none" 
	d="
M222.820297,96.584892 
	C221.439636,96.867233 219.830750,96.841957 218.112915,96.491623 
	C219.533340,96.203468 221.062698,96.240372 222.820297,96.584892 
z"/>
<path fill="#ECCBBD" opacity="1.000000" stroke="none" 
	d="
M163.679047,141.208252 
	C163.776672,143.590485 163.041473,145.256088 160.086517,143.457870 
	C161.122238,142.527771 162.239777,141.888901 163.679047,141.208252 
z"/>
<path fill="#ECCBBD" opacity="1.000000" stroke="none" 
	d="
M180.647888,92.048615 
	C180.422302,93.461021 179.886932,95.036232 178.965210,96.503601 
	C179.165283,95.000992 179.751709,93.606201 180.647888,92.048615 
z"/>
<path fill="#ECCBBD" opacity="1.000000" stroke="none" 
	d="
M181.117767,73.353455 
	C181.890762,74.538109 182.614975,76.073425 183.116394,77.829140 
	C182.285385,76.601059 181.677185,75.152596 181.117767,73.353455 
z"/>
<path fill="#ECCBBD" opacity="1.000000" stroke="none" 
	d="
M185.101990,131.391235 
	C187.651672,132.272797 187.769577,133.550232 184.798859,134.817291 
	C184.624802,133.791763 184.831100,132.785538 185.101990,131.391235 
z"/>
<path fill="#ECCBBD" opacity="1.000000" stroke="none" 
	d="
M184.105133,125.339005 
	C184.562775,125.882088 184.958984,126.761490 185.124786,127.845581 
	C184.610840,127.258621 184.327286,126.466980 184.105133,125.339005 
z"/>
<path fill="#ECCBBD" opacity="1.000000" stroke="none" 
	d="
M183.062195,48.777229 
	C182.974380,49.696743 182.601379,50.757103 181.811432,51.806610 
	C181.855316,50.836533 182.316162,49.877304 183.062195,48.777229 
z"/>
<path fill="#ECCBBD" opacity="1.000000" stroke="none" 
	d="
M214.966507,42.662979 
	C214.142487,42.573307 213.170776,42.188953 212.101196,41.485592 
	C212.941833,41.567158 213.880325,41.967731 214.966507,42.662979 
z"/>
<path fill="#ECCBBD" opacity="1.000000" stroke="none" 
	d="
M182.097290,89.001480 
	C182.069672,89.499413 181.947021,90.232452 181.495453,90.983170 
	C181.445099,90.412766 181.723679,89.824669 182.097290,89.001480 
z"/>
<path fill="#ECCBBD" opacity="1.000000" stroke="none" 
	d="
M182.113022,118.301003 
	C182.542526,118.570702 182.918472,119.139168 183.094101,119.878662 
	C182.615662,119.566383 182.337555,119.083076 182.113022,118.301003 
z"/>
<path fill="#ECCBBD" opacity="1.000000" stroke="none" 
	d="
M230.053116,99.626160 
	C229.464478,99.559227 228.813049,99.159409 228.082306,98.463081 
	C228.665421,98.542137 229.327881,98.917702 230.053116,99.626160 
z"/>
<path fill="#ECCBBD" opacity="1.000000" stroke="none" 
	d="
M222.053101,47.626144 
	C221.464462,47.559219 220.813049,47.159405 220.082306,46.463081 
	C220.665421,46.542137 221.327881,46.917698 222.053101,47.626144 
z"/>
<path fill="#ECCBBD" opacity="1.000000" stroke="none" 
	d="
M182.098633,146.046524 
	C182.556030,146.253357 182.915771,146.718460 183.275497,147.183563 
	C182.870041,147.403931 182.464569,147.624298 181.692017,147.805954 
	C181.550262,147.279755 181.775620,146.792282 182.098633,146.046524 
z"/>
<path fill="#ECCBBD" opacity="1.000000" stroke="none" 
	d="
M181.115753,52.986824 
	C181.567535,53.217178 181.940430,53.647743 182.313324,54.078308 
	C181.930130,54.258823 181.546936,54.439346 180.847168,54.472527 
	C180.699356,53.945797 180.868103,53.566414 181.115753,52.986824 
z"/>
<path fill="#ECCBBD" opacity="1.000000" stroke="none" 
	d="
M207.263519,145.837341 
	C207.147339,145.602982 207.309341,145.405197 207.672455,145.134338 
	C207.951599,145.392746 207.840988,145.663620 207.263519,145.837341 
z"/>
<path fill="#ECCBBD" opacity="1.000000" stroke="none" 
	d="
M205.263519,147.837341 
	C205.147339,147.602982 205.309341,147.405197 205.672455,147.134338 
	C205.951599,147.392746 205.840988,147.663620 205.263519,147.837341 
z"/>
<path fill="#ECCBBD" opacity="1.000000" stroke="none" 
	d="
M179.162689,114.263573 
	C179.397018,114.147369 179.594833,114.309364 179.865692,114.672462 
	C179.971542,114.833549 179.495193,114.839157 179.495193,114.839157 
	C179.495193,114.839157 179.158920,114.501747 179.162689,114.263573 
z"/>
<path fill="#ECCBBD" opacity="1.000000" stroke="none" 
	d="
M106.733360,96.992416 
	C106.962540,97.092171 106.966904,97.296021 106.964798,97.805847 
	C106.808395,97.773384 106.658478,97.434944 106.733360,96.992416 
z"/>
<path fill="#ECCBBD" opacity="1.000000" stroke="none" 
	d="
M38.524342,22.432907 
	C31.739721,31.843849 27.161764,42.077488 29.172054,53.910553 
	C29.929077,58.366570 32.608383,62.496010 34.825768,67.131485 
	C35.405182,67.690659 35.602978,67.852654 35.833553,67.974632 
	C40.351620,72.263397 44.869686,76.552162 49.793320,81.316971 
	C51.483662,81.827858 52.768433,81.862694 54.053207,81.897522 
	C57.094574,82.612053 60.135941,83.326576 63.674637,84.397186 
	C67.575951,85.931992 69.463203,84.645912 70.000740,81.166473 
	C70.753105,81.125076 71.505470,81.083679 72.710342,81.380920 
	C73.683098,81.273460 74.203346,80.827370 74.723602,80.381279 
	C75.191124,79.970482 75.658653,79.559692 76.578667,79.535187 
	C77.725342,80.628639 78.419533,81.335815 79.067444,82.361534 
	C78.975395,83.106483 78.929619,83.532875 78.883835,83.959274 
	C74.087822,85.654930 69.388176,87.734230 64.476173,88.968178 
	C53.490349,91.727936 44.493019,87.500145 36.173691,79.821411 
	C35.591003,79.284485 35.394268,79.106468 35.166641,78.962593 
	C35.166641,78.962593 34.999989,79.000267 34.917458,78.763527 
	C34.544041,78.406738 34.253151,78.286682 33.962261,78.166626 
	C33.962261,78.166634 33.998123,78.000069 33.895718,77.757217 
	C33.613911,77.313507 33.404949,77.150558 33.166431,77.025505 
	C29.780043,71.940514 26.393652,66.855522 23.150843,61.239082 
	C22.918478,60.139164 22.542534,59.570698 22.166588,59.002232 
	C19.667040,50.268337 20.388399,41.831264 24.762678,33.842991 
	C26.389977,30.871229 28.423265,28.121786 30.984650,25.121078 
	C33.973366,24.125099 36.248856,23.279003 38.524342,22.432907 
z"/>
<path fill="#ECCBBD" opacity="1.000000" stroke="none" 
	d="
M78.650002,60.101357 
	C80.241829,61.284950 81.479622,62.403316 82.884354,63.813110 
	C83.051300,64.104538 82.972809,64.573669 82.742081,64.906921 
	C82.309349,65.405182 82.147346,65.602982 82.025360,65.833542 
	C80.587135,66.810471 79.148911,67.787399 76.989655,68.892624 
	C75.141014,69.028061 74.013412,69.035210 72.885811,69.042358 
	C62.330044,62.243259 53.843166,53.337940 46.165916,42.853168 
	C45.594818,42.309353 45.397022,42.147358 45.166447,42.025387 
	C44.117725,40.611824 43.069008,39.198261 41.998222,36.996529 
	C41.768482,35.016045 41.560810,33.823723 41.353134,32.631401 
	C41.353130,32.631401 41.375294,32.401577 41.850182,32.554420 
	C43.584774,32.454315 44.844471,32.201370 46.104172,31.948425 
	C49.207634,34.251637 52.311100,36.554848 55.827366,39.173347 
	C56.405182,39.690651 56.602978,39.852646 56.833553,39.974613 
	C62.699730,45.920090 68.565903,51.865562 74.836121,58.149834 
	C75.405174,58.690651 75.602974,58.852646 75.833549,58.974613 
	C76.654358,59.328449 77.475159,59.682285 78.650002,60.101357 
z"/>
<path fill="#ECCBBD" opacity="1.000000" stroke="none" 
	d="
M45.166447,67.025368 
	C41.406960,62.517506 37.667873,57.999237 37.697212,51.312523 
	C39.056908,50.580563 40.081478,50.265316 41.106052,49.950066 
	C48.987415,57.729916 56.868778,65.509766 64.884567,73.824524 
	C65.018982,74.359444 65.000168,74.833405 65.000168,74.833405 
	C58.806179,75.833031 53.337502,74.288902 48.182983,69.835144 
	C47.594818,69.309341 47.397022,69.147346 47.166447,69.025368 
	C46.944271,68.711746 46.722095,68.398125 46.129875,67.797928 
	C45.594818,67.309341 45.397022,67.147346 45.166447,67.025368 
z"/>
<path fill="#ECCBBD" opacity="1.000000" stroke="none" 
	d="
M79.113716,82.042984 
	C78.419533,81.335815 77.725342,80.628639 76.909409,79.555786 
	C80.988731,75.845642 85.189789,72.501198 90.012695,69.070099 
	C91.145241,69.320763 91.655937,69.658073 92.166634,69.995384 
	C91.943497,70.303146 91.720360,70.610901 90.997253,71.039230 
	C90.157516,71.338379 90.047241,71.610092 90.166451,71.974945 
	C87.973137,74.602623 85.779823,77.230301 83.041901,80.008896 
	C82.157516,80.338379 82.047241,80.610092 82.166451,80.974945 
	C81.949219,81.286446 81.731987,81.597954 80.946136,81.975906 
	C79.956238,82.042564 79.534981,82.042778 79.113716,82.042984 
z"/>
<path fill="#ECCBBD" opacity="1.000000" stroke="none" 
	d="
M38.724007,22.298796 
	C36.248856,23.279003 33.973366,24.125099 31.291798,24.964462 
	C32.378719,23.021322 33.648544,20.832964 35.446239,19.240520 
	C36.571579,18.243666 38.491474,18.143782 40.054852,17.641422 
	C39.677792,19.149176 39.300732,20.656929 38.724007,22.298796 
z"/>
<path fill="#DA5623" opacity="1.000000" stroke="none" 
	d="
M92.487610,69.903976 
	C91.655937,69.658073 91.145241,69.320763 90.317978,68.908432 
	C90.068130,68.513382 90.045555,68.131653 90.216797,67.883858 
	C91.022011,66.718704 91.836655,65.549835 92.792778,64.516289 
	C92.880913,64.421021 94.591789,65.449532 94.531036,65.654610 
	C94.107262,67.085144 93.414909,68.436111 92.487610,69.903976 
z"/>
<path fill="#ECCBBD" opacity="1.000000" stroke="none" 
	d="
M69.660629,81.222305 
	C69.463203,84.645912 67.575951,85.931992 64.088364,84.459961 
	C65.776680,83.203804 67.548599,82.240967 69.660629,81.222305 
z"/>
<path fill="#ECCBBD" opacity="1.000000" stroke="none" 
	d="
M41.044991,49.607132 
	C40.081478,50.265316 39.056908,50.580563 37.618790,50.872120 
	C37.141342,49.884632 37.077435,48.920834 36.950260,47.002808 
	C38.621056,47.939503 39.802490,48.601849 41.044991,49.607132 
z"/>
<path fill="#ECCBBD" opacity="1.000000" stroke="none" 
	d="
M45.941292,31.637693 
	C44.844471,32.201370 43.584774,32.454315 41.958076,32.513351 
	C42.357082,29.331562 43.834579,29.345495 45.941292,31.637693 
z"/>
<path fill="#ECCBBD" opacity="1.000000" stroke="none" 
	d="
M54.010094,81.557671 
	C52.768433,81.862694 51.483662,81.827858 50.101349,81.479805 
	C51.324871,81.183662 52.645927,81.200745 54.010094,81.557671 
z"/>
<path fill="#ECCBBD" opacity="1.000000" stroke="none" 
	d="
M41.074108,32.765900 
	C41.560810,33.823723 41.768482,35.016045 41.966942,36.661316 
	C41.570179,35.709644 41.182629,34.305019 41.074108,32.765900 
z"/>
<path fill="#ECCBBD" opacity="1.000000" stroke="none" 
	d="
M73.031769,69.335007 
	C74.013412,69.035210 75.141014,69.028061 76.691437,69.031616 
	C76.052216,70.919617 74.824333,71.681580 73.031769,69.335007 
z"/>
<path fill="#ECCBBD" opacity="1.000000" stroke="none" 
	d="
M74.416313,80.459633 
	C74.203346,80.827370 73.683098,81.273460 73.083214,81.443085 
	C73.372070,80.957077 73.740547,80.747536 74.416313,80.459633 
z"/>
<path fill="#DA5623" opacity="1.000000" stroke="none" 
	d="
M79.067444,82.361534 
	C79.534981,82.042778 79.956238,82.042564 80.687515,82.104469 
	C80.496681,82.737564 79.995842,83.308540 79.189423,83.919395 
	C78.929619,83.532875 78.975395,83.106483 79.067444,82.361534 
z"/>
<path fill="#ECCBBD" opacity="1.000000" stroke="none" 
	d="
M22.113029,59.301003 
	C22.542534,59.570698 22.918478,60.139164 23.094093,60.878662 
	C22.615667,60.566387 22.337570,60.083080 22.113029,59.301003 
z"/>
<path fill="#ECCBBD" opacity="1.000000" stroke="none" 
	d="
M65.287491,74.883919 
	C65.000168,74.833405 65.018982,74.359444 65.030685,74.122543 
	C65.512924,74.135208 65.983475,74.384773 66.454025,74.634338 
	C66.160950,74.734367 65.867882,74.834404 65.287491,74.883919 
z"/>
<path fill="#ECCBBD" opacity="1.000000" stroke="none" 
	d="
M47.162682,69.263535 
	C47.397022,69.147346 47.594818,69.309341 47.865669,69.672455 
	C47.971508,69.833549 47.495171,69.839134 47.495171,69.839134 
	C47.495171,69.839134 47.158916,69.501709 47.162682,69.263535 
z"/>
<path fill="#ECCBBD" opacity="1.000000" stroke="none" 
	d="
M56.837318,39.736446 
	C56.602978,39.852646 56.405182,39.690651 56.134335,39.327538 
	C56.392750,39.048386 56.663612,39.158997 56.837318,39.736446 
z"/>
<path fill="#ECCBBD" opacity="1.000000" stroke="none" 
	d="
M82.263535,65.837326 
	C82.147346,65.602982 82.309349,65.405182 82.672455,65.134323 
	C82.951599,65.392738 82.840988,65.663612 82.263535,65.837326 
z"/>
<path fill="#ECCBBD" opacity="1.000000" stroke="none" 
	d="
M45.162682,67.263535 
	C45.397022,67.147346 45.594818,67.309341 45.865669,67.672455 
	C45.971508,67.833549 45.495171,67.839134 45.495171,67.839134 
	C45.495171,67.839134 45.158916,67.501709 45.162682,67.263535 
z"/>
<path fill="#DA5623" opacity="1.000000" stroke="none" 
	d="
M90.327560,71.868378 
	C90.047241,71.610092 90.157516,71.338379 90.735992,71.163132 
	C90.852737,71.397598 90.690727,71.596046 90.327560,71.868378 
z"/>
<path fill="#ECCBBD" opacity="1.000000" stroke="none" 
	d="
M33.171677,77.271255 
	C33.404949,77.150558 33.613911,77.313507 33.913345,77.673859 
	C34.033379,77.833359 33.541965,77.846230 33.541965,77.846230 
	C33.541965,77.846230 33.176918,77.517014 33.171677,77.271255 
z"/>
<path fill="#DA5623" opacity="1.000000" stroke="none" 
	d="
M34.084721,78.333481 
	C34.253151,78.286682 34.544041,78.406738 34.834148,78.782433 
	C34.597343,78.890625 34.388615,78.711380 34.084721,78.333481 
z"/>
<path fill="#ECCBBD" opacity="1.000000" stroke="none" 
	d="
M35.159779,79.208267 
	C35.394268,79.106468 35.591003,79.284485 35.864098,79.665115 
	C35.589027,79.943115 35.316216,79.816566 35.159779,79.208267 
z"/>
<path fill="#ECCBBD" opacity="1.000000" stroke="none" 
	d="
M35.837318,67.736465 
	C35.602978,67.852654 35.405182,67.690659 35.134331,67.327545 
	C35.392746,67.048393 35.663609,67.159004 35.837318,67.736465 
z"/>
<path fill="#DA5623" opacity="1.000000" stroke="none" 
	d="
M82.327560,80.868378 
	C82.047241,80.610092 82.157516,80.338379 82.735992,80.163132 
	C82.852737,80.397598 82.690727,80.596046 82.327560,80.868378 
z"/>
<path fill="#DA5623" opacity="1.000000" stroke="none" 
	d="
M93.672440,80.131622 
	C93.952759,80.389908 93.842484,80.661621 93.264008,80.836868 
	C93.147263,80.602402 93.309273,80.403954 93.672440,80.131622 
z"/>
<path fill="#DA5623" opacity="1.000000" stroke="none" 
	d="
M105.673782,80.083145 
	C105.956100,80.332458 105.850990,80.618980 105.271744,80.827744 
	C105.150406,80.594215 105.313316,80.384338 105.673782,80.083145 
z"/>
<path fill="#DA5623" opacity="1.000000" stroke="none" 
	d="
M90.672440,83.131622 
	C90.952759,83.389908 90.842484,83.661621 90.264008,83.836868 
	C90.147263,83.602402 90.309273,83.403954 90.672440,83.131622 
z"/>
<path fill="#ECCBBD" opacity="1.000000" stroke="none" 
	d="
M75.837311,58.736443 
	C75.602974,58.852646 75.405174,58.690651 75.134323,58.327534 
	C75.392738,58.048374 75.663605,58.158989 75.837311,58.736443 
z"/>
<path fill="#DA5623" opacity="1.000000" stroke="none" 
	d="
M89.131622,87.327560 
	C89.389908,87.047241 89.661621,87.157516 89.836868,87.735992 
	C89.602402,87.852737 89.403954,87.690727 89.131622,87.327560 
z"/>
<path fill="#DA5623" opacity="1.000000" stroke="none" 
	d="
M91.131622,89.327560 
	C91.389908,89.047241 91.661621,89.157516 91.836868,89.735992 
	C91.602402,89.852737 91.403954,89.690727 91.131622,89.327560 
z"/>
<path fill="#DA5623" opacity="1.000000" stroke="none" 
	d="
M93.131622,91.327560 
	C93.389908,91.047241 93.661621,91.157516 93.836868,91.735992 
	C93.602402,91.852737 93.403954,91.690727 93.131622,91.327560 
z"/>
<path fill="#ECCBBD" opacity="1.000000" stroke="none" 
	d="
M45.162682,42.263554 
	C45.397022,42.147358 45.594818,42.309353 45.865662,42.672470 
	C45.971500,42.833561 45.495167,42.839142 45.495167,42.839142 
	C45.495167,42.839142 45.158913,42.501720 45.162682,42.263554 
z"/>
<path fill="#DA5623" opacity="1.000000" stroke="none" 
	d="
M180.414307,151.428604 
	C180.400482,151.405502 180.438202,151.446777 180.408386,151.459686 
	C180.378586,151.472580 180.428131,151.451706 180.414307,151.428604 
z"/>
</svg>