<svg xmlns="http://www.w3.org/2000/svg" width="250" height="250">
  <path fill="#FFF" d="M242.87 117.87h-20.643l9.254-9.254a6.291 6.291 0 1 0-8.897-8.898l-18.154 18.151h-30.51l13.575-14.59a6.292 6.292 0 0 0-.321-8.893 6.254 6.254 0 0 0-3.645-1.645c-.8-.04-18.033-.003-18.033-.003l20.17-20.17h25.324a6.291 6.291 0 0 0 6.292-6.293 6.291 6.291 0 0 0-6.292-6.292h-12.74l14.84-14.84a6.293 6.293 0 0 0 0-8.9c-2.457-2.456-6.58-2.456-9.038 0l-15.154 15.015V38.171a6.291 6.291 0 0 0-6.291-6.292 6.291 6.291 0 0 0-6.292 6.292v25.672L155.478 84.82l-.348-18.998c0-.03.03-.059.029-.089-.03-1.53-.591-3.054-1.737-4.244-2.41-2.502-6.525-2.575-9.028-.163L131.013 74.1V44.553l18.011-17.873c2.458-2.458 2.527-6.44.07-8.898-2.458-2.456-6.546-2.456-9.003 0l-9.078 8.973V6.292A6.291 6.291 0 0 0 124.72 0a6.291 6.291 0 0 0-6.292 6.292v20.464l-8.834-8.973a6.21 6.21 0 0 0-8.83 0c-2.456 2.458-2.561 6.441-.104 8.898l17.768 17.873v29.715l-13.57-12.982a6.21 6.21 0 0 0-8.826.242c-.902.953-1.412 2.114-1.606 3.318-.12.49-.17.997-.169 1.52l-.073 17.81L73.128 63.25V38.171a6.291 6.291 0 0 0-6.292-6.292 6.291 6.291 0 0 0-6.292 6.292v12.495L46.26 36.243a6.21 6.21 0 0 0-8.829 0c-2.457 2.458-2.422 6.442.035 8.9l14.876 14.84H39.01a6.291 6.291 0 0 0-6.292 6.292 6.291 6.291 0 0 0 6.292 6.292h25.916l20.759 20.759-19.344.697c-3.373.122-6.312 2.881-6.344 6.223-.004.094-.293.189-.293.283v.009c0 .006.29.014.29.02.037 1.573.8 3.134 2.009 4.327l13.289 12.984h-29.13L28.009 99.716a6.292 6.292 0 0 0-8.898 8.898l9.253 9.254H7.131a6.291 6.291 0 0 0-6.292 6.292 6.291 6.291 0 0 0 6.292 6.292h20.99l-9.01 9.01a6.292 6.292 0 1 0 8.9 8.899l17.907-17.908h29.385l-12.796 13.753a6.292 6.292 0 0 0 4.605 10.578c.028 0 .057-.004.086-.004l.055.003h.046l18.46-.105-21.077 21.077H39.01a6.291 6.291 0 0 0-6.292 6.292 6.291 6.291 0 0 0 6.292 6.292h13.088l-14.596 14.596a6.292 6.292 0 0 0 4.45 10.741c1.61 0 3.08-.614 4.309-1.842l14.283-14.422v12.739a6.291 6.291 0 0 0 6.292 6.292 6.291 6.291 0 0 0 6.292-6.292v-25.323l21.346-21.206.82 20.461c.124 3.394 2.95 6.13 6.318 6.061 1.145-.022 2.386-.39 3.618-1.294.892-.655 13.2-13.265 13.2-13.265v29.685l-17.594 17.733c-2.458 2.457-2.387 6.44.07 8.898a6.35 6.35 0 0 0 4.483 1.843c1.61 0 3.098-.614 4.327-1.842l8.714-8.836v20.642A6.291 6.291 0 0 0 124.72 250a6.291 6.291 0 0 0 6.292-6.292v-21.233l9.568 9.427c1.229 1.228 2.909 1.842 4.519 1.842 1.61 0 3.256-.614 4.484-1.842 2.457-2.458 2.335-6.441-.123-8.899l-18.448-18.326v-29.95s11.518 10.82 13.336 12.564c1.818 1.745 3.307 2.727 5.474 2.727h.039c3.474 0 6.275-3.024 6.254-6.499l-.257-19.879 20.456 20.597v25.914a6.291 6.291 0 0 0 6.292 6.292 6.291 6.291 0 0 0 6.292-6.292V196.82l15.155 15.014c1.229 1.228 2.908 1.842 4.519 1.842 1.61 0 3.255-.614 4.484-1.842 2.457-2.458 2.475-6.441.018-8.899l-14.58-14.596h12.495a6.291 6.291 0 0 0 6.292-6.292 6.291 6.291 0 0 0-6.292-6.292H185.91l-21.596-21.596 19.345-.697c.069-.002.136-.013.204-.017l.076-.007a6.286 6.286 0 0 0 5.781-6.49 6.273 6.273 0 0 0-2.646-4.897l-11.624-11.598h29.224l17.907 17.908a6.272 6.272 0 0 0 4.45 1.843 6.29 6.29 0 0 0 4.45-10.74l-9.01-9.01h20.397a6.291 6.291 0 0 0 6.292-6.292 6.292 6.292 0 0 0-6.292-6.293Zm-74.418-12.599-11.721 12.598h-16.365l12.585-12.585 15.501-.013Zm-25.658-24.915.298 16.78-12.08 12.01V91.576l11.782-11.221Zm-36.03.068L118.43 91.6v16.95L106.747 96.8l.017-16.375ZM81.26 106.077l16.579-.597 12.39 12.39h-17.03L81.26 106.076Zm.322 36.102 10.91-11.726h17.492l-11.612 11.612-16.79.114Zm25.686 26.948-.717-17.653 11.878-11.947v18.124l-11.161 11.476Zm36.037-.281-12.292-11.307v-18.607l12.115 12.046.177 17.868Zm25.312-27.433-16.455.592-11.552-11.552h17.023l10.984 10.96Z"/>
</svg>
