<svg version="1.1" id="Layer_1" xmlns="http://www.w3.org/2000/svg" xmlns:xlink="http://www.w3.org/1999/xlink" x="0px" y="0px"
	 width="100%" viewBox="0 0 694 771" enable-background="new 0 0 694 771" xml:space="preserve">
<path fill="#79B7BA" opacity="1.000000" stroke="none" 
	d="
M364.000000,772.000000 
	C242.666672,772.000000 121.833336,772.000000 1.000000,772.000000 
	C1.000000,515.000000 1.000000,258.000000 1.000000,1.000000 
	C232.333328,1.000000 463.666656,1.000000 695.000000,1.000000 
	C695.000000,258.000000 695.000000,515.000000 695.000000,772.000000 
	C584.833313,772.000000 474.666656,772.000000 364.000000,772.000000 
M211.220825,340.588654 
	C217.336136,340.726868 223.452621,340.826599 229.566437,341.013916 
	C235.833374,341.205994 242.097717,341.483734 247.946060,342.366150 
	C245.577301,346.879456 243.219604,351.398590 240.837814,355.904999 
	C231.830139,372.947876 222.776077,389.966370 213.816803,407.034607 
	C208.606995,416.959808 203.643967,427.015076 198.392487,436.917725 
	C190.429886,451.932770 182.293137,466.855377 174.291641,481.849915 
	C173.486130,483.359467 173.101974,485.093872 172.210876,487.599487 
	C185.803665,487.599487 198.647644,487.599487 212.579834,487.599487 
	C186.646774,536.512817 161.255692,584.403809 135.684647,632.825012 
	C137.655411,633.221252 139.625809,633.961609 141.596985,633.963684 
	C199.593048,634.025574 257.589325,634.070007 315.585022,633.914001 
	C320.539581,633.900635 322.180786,635.147339 322.139679,640.313538 
	C321.904816,669.809692 322.112152,699.309143 321.934967,728.806152 
	C321.907928,733.301392 323.095612,734.830200 327.763214,734.785950 
	C350.592987,734.569641 373.427063,734.566650 396.256744,734.787781 
	C400.957947,734.833252 402.089355,733.249451 402.062988,728.786133 
	C401.889709,699.455811 401.970215,670.123901 401.977051,640.792542 
	C401.978638,634.030334 401.994965,634.016541 408.934692,634.016113 
	C466.764160,634.012207 524.593628,634.018005 582.423096,633.996155 
	C584.401306,633.995422 586.379333,633.733032 588.130249,632.823547 
	C584.773254,626.337219 581.463684,619.825867 578.050598,613.369263 
	C566.797546,592.081360 555.494568,570.819885 544.234680,549.535645 
	C534.143127,530.459900 524.075195,511.371643 514.026428,492.273315 
	C513.310669,490.913086 512.838135,489.424896 511.861664,487.042847 
	C525.735718,487.042847 538.579712,487.042847 552.484253,487.042847 
	C526.518982,437.941650 501.078613,389.833038 476.405853,341.289246 
	C487.104584,341.193909 497.803864,341.134216 508.501343,340.962097 
	C509.985474,340.938232 511.460724,340.359314 512.825745,339.348419 
	C462.748535,244.702927 412.671295,150.057449 362.143585,54.560570 
	C353.494751,70.551010 345.410156,85.272827 337.537140,100.106956 
	C325.541779,122.708275 313.710571,145.396667 301.775940,168.030289 
	C292.855896,184.946762 283.847260,201.816544 274.946350,218.743027 
	C269.647614,228.819427 264.546082,238.999649 259.235962,249.069946 
	C254.226395,258.570282 249.015518,267.964233 243.976257,277.449127 
	C239.958038,285.012238 236.098740,292.659607 232.108627,300.237854 
	C225.116760,313.517181 218.078690,326.772186 211.220825,340.588654 
z"/>
<path fill="#FFDE59" opacity="1.000000" stroke="none" 
	d="
M135.864624,632.294861 
	C161.255692,584.403809 186.646774,536.512817 212.579834,487.599487 
	C198.647644,487.599487 185.803665,487.599487 172.210876,487.599487 
	C173.101974,485.093872 173.486130,483.359467 174.291641,481.849915 
	C182.293137,466.855377 190.429886,451.932770 198.392487,436.917725 
	C203.643967,427.015076 208.606995,416.959808 213.816803,407.034607 
	C222.776077,389.966370 231.830139,372.947876 240.837814,355.904999 
	C243.219604,351.398590 245.577301,346.879456 248.249237,341.740845 
	C247.089935,340.742645 245.629669,340.056946 244.164612,340.046631 
	C233.130249,339.968781 222.094971,340.023834 211.059967,340.037354 
	C218.078690,326.772186 225.116760,313.517181 232.108627,300.237854 
	C236.098740,292.659607 239.958038,285.012238 243.976257,277.449127 
	C249.015518,267.964233 254.226395,258.570282 259.235962,249.069946 
	C264.546082,238.999649 269.647614,228.819427 274.946350,218.743027 
	C283.847260,201.816544 292.855896,184.946762 301.775940,168.030289 
	C313.710571,145.396667 325.541779,122.708275 337.537140,100.106956 
	C345.410156,85.272827 353.494751,70.551010 362.143585,54.560570 
	C412.671295,150.057449 462.748535,244.702927 512.418884,339.678833 
	C501.248108,340.005127 490.483429,339.939697 479.721222,340.073334 
	C478.353607,340.090302 476.998901,341.148590 475.638214,341.724426 
	C501.078613,389.833038 526.518982,437.941650 552.484253,487.042847 
	C538.579712,487.042847 525.735718,487.042847 511.861664,487.042847 
	C512.838135,489.424896 513.310669,490.913086 514.026428,492.273315 
	C524.075195,511.371643 534.143127,530.459900 544.234680,549.535645 
	C555.494568,570.819885 566.797546,592.081360 578.050598,613.369263 
	C581.463684,619.825867 584.773254,626.337219 587.789062,632.992676 
	C586.784485,633.107056 586.120972,633.004456 585.457520,633.004333 
	C525.641663,632.993835 465.825745,633.027161 406.010101,632.908081 
	C401.966614,632.900024 400.943726,634.268860 400.959473,638.095459 
	C401.082367,667.919556 401.029480,697.744385 401.023529,727.569031 
	C401.022217,734.262878 401.008820,734.284851 394.583740,734.287903 
	C372.756775,734.298218 350.928558,734.166138 329.103882,734.390442 
	C324.358154,734.439209 322.833649,733.143250 322.868805,728.254578 
	C323.081055,698.764709 322.976166,669.272583 322.972198,639.781189 
	C322.971283,632.997375 322.961853,632.988037 316.177094,632.987732 
	C258.360657,632.985107 200.544205,632.994019 142.727768,632.956909 
	C140.439926,632.955444 138.152328,632.525269 135.864624,632.294861 
M536.111877,476.709717 
	C523.598267,452.942352 511.147827,429.141449 498.550354,405.418579 
	C489.015106,387.462311 479.218414,369.644806 469.692017,351.683868 
	C466.238892,345.173401 463.232452,338.426056 460.948853,331.927856 
	C471.573853,331.950867 482.199036,332.012329 492.823547,331.949280 
	C494.185822,331.941193 495.544250,331.285522 496.880371,330.211792 
	C493.076477,322.893982 489.315125,315.553711 485.461395,308.262238 
	C467.538483,274.350952 449.575012,240.461090 431.654694,206.548431 
	C412.172150,169.679337 392.728333,132.789764 373.250153,95.918358 
	C369.654205,89.111382 365.974915,82.348427 361.912018,74.778862 
	C350.355804,96.489090 339.262726,117.200684 328.294891,137.978394 
	C320.747406,152.276550 313.468842,166.716843 305.901520,181.004318 
	C291.849701,207.534912 277.675476,234.000732 263.550507,260.492584 
	C255.511581,275.569794 247.397461,290.607513 239.456619,305.736145 
	C235.051788,314.128082 230.933792,322.670563 227.396042,331.673004 
	C239.589432,331.711182 251.782837,331.749359 264.002686,332.385254 
	C259.569855,340.636475 255.093613,348.864716 250.711716,357.142914 
	C232.400558,391.735870 214.087204,426.327728 195.856384,460.963013 
	C193.015778,466.359680 190.598846,471.979309 188.734634,477.823792 
	C201.855759,477.974182 214.976883,478.124603 227.844223,478.900543 
	C202.415863,526.904236 176.987503,574.907959 151.138779,623.705200 
	C154.191772,623.705200 156.152847,623.705200 158.113937,623.705200 
	C214.052505,623.705322 269.991272,623.766663 325.929352,623.600220 
	C330.896301,623.585449 332.441742,624.813538 332.399017,629.957703 
	C332.153015,659.589844 332.264618,689.224976 332.313324,718.859070 
	C332.316498,720.788208 332.805328,722.716492 333.970123,724.881042 
	C352.956421,724.803162 371.942688,724.725220 391.422058,724.050171 
	C391.521515,722.061768 391.706360,720.073486 391.707672,718.085022 
	C391.726440,689.435608 391.693573,660.786072 391.735718,632.136719 
	C391.749634,622.666199 390.697388,623.725830 400.393311,623.720398 
	C455.693390,623.689148 510.993439,623.705200 566.293518,623.705200 
	C568.199280,623.705200 570.105042,623.705200 572.682678,623.705200 
	C562.583679,604.589478 552.952515,586.370972 543.332031,568.146667 
	C527.518494,538.190857 511.711914,508.231354 496.844788,478.082520 
	C498.997040,478.054901 501.149384,478.031738 503.301575,477.998871 
	C514.205688,477.832458 525.109741,477.663513 536.111877,476.709717 
z"/>
<path fill="#82BA68" opacity="1.000000" stroke="none" 
	d="
M135.774628,632.559937 
	C138.152328,632.525269 140.439926,632.955444 142.727768,632.956909 
	C200.544205,632.994019 258.360657,632.985107 316.177094,632.987732 
	C322.961853,632.988037 322.971283,632.997375 322.972198,639.781189 
	C322.976166,669.272583 323.081055,698.764709 322.868805,728.254578 
	C322.833649,733.143250 324.358154,734.439209 329.103882,734.390442 
	C350.928558,734.166138 372.756775,734.298218 394.583740,734.287903 
	C401.008820,734.284851 401.022217,734.262878 401.023529,727.569031 
	C401.029480,697.744385 401.082367,667.919556 400.959473,638.095459 
	C400.943726,634.268860 401.966614,632.900024 406.010101,632.908081 
	C465.825745,633.027161 525.641663,632.993835 585.457520,633.004333 
	C586.120972,633.004456 586.784485,633.107056 587.902710,633.377258 
	C586.379333,633.733032 584.401306,633.995422 582.423096,633.996155 
	C524.593628,634.018005 466.764160,634.012207 408.934692,634.016113 
	C401.994965,634.016541 401.978638,634.030334 401.977051,640.792542 
	C401.970215,670.123901 401.889709,699.455811 402.062988,728.786133 
	C402.089355,733.249451 400.957947,734.833252 396.256744,734.787781 
	C373.427063,734.566650 350.592987,734.569641 327.763214,734.785950 
	C323.095612,734.830200 321.907928,733.301392 321.934967,728.806152 
	C322.112152,699.309143 321.904816,669.809692 322.139679,640.313538 
	C322.180786,635.147339 320.539581,633.900635 315.585022,633.914001 
	C257.589325,634.070007 199.593048,634.025574 141.596985,633.963684 
	C139.625809,633.961609 137.655411,633.221252 135.774628,632.559937 
z"/>
<path fill="#E9F1E1" opacity="1.000000" stroke="none" 
	d="
M211.140396,340.312988 
	C222.094971,340.023834 233.130249,339.968781 244.164612,340.046631 
	C245.629669,340.056946 247.089935,340.742645 248.457809,341.419739 
	C242.097717,341.483734 235.833374,341.205994 229.566437,341.013916 
	C223.452621,340.826599 217.336136,340.726868 211.140396,340.312988 
z"/>
<path fill="#E9F1E1" opacity="1.000000" stroke="none" 
	d="
M476.022034,341.506836 
	C476.998901,341.148590 478.353607,340.090302 479.721222,340.073334 
	C490.483429,339.939697 501.248108,340.005127 512.476074,340.023315 
	C511.460724,340.359314 509.985474,340.938232 508.501343,340.962097 
	C497.803864,341.134216 487.104584,341.193909 476.022034,341.506836 
z"/>
<path fill="#7AB7BA" opacity="1.000000" stroke="none" 
	d="
M460.022186,331.786743 
	C463.232452,338.426056 466.238892,345.173401 469.692017,351.683868 
	C479.218414,369.644806 489.015106,387.462311 498.550354,405.418579 
	C511.147827,429.141449 523.598267,452.942352 535.607788,476.958801 
	C523.226685,477.144257 511.349670,477.044556 499.472961,477.072815 
	C498.281860,477.075653 497.092560,477.854645 495.902405,478.273438 
	C511.711914,508.231354 527.518494,538.190857 543.332031,568.146667 
	C552.952515,586.370972 562.583679,604.589478 572.682678,623.705200 
	C570.105042,623.705200 568.199280,623.705200 566.293518,623.705200 
	C510.993439,623.705200 455.693390,623.689148 400.393311,623.720398 
	C390.697388,623.725830 391.749634,622.666199 391.735718,632.136719 
	C391.693573,660.786072 391.726440,689.435608 391.707672,718.085022 
	C391.706360,720.073486 391.521515,722.061768 390.814514,724.167358 
	C372.618500,724.190552 355.030029,724.080872 337.441437,724.031433 
	C335.984283,724.027344 334.526001,724.430969 333.068237,724.645203 
	C332.805328,722.716492 332.316498,720.788208 332.313324,718.859070 
	C332.264618,689.224976 332.153015,659.589844 332.399017,629.957703 
	C332.441742,624.813538 330.896301,623.585449 325.929352,623.600220 
	C269.991272,623.766663 214.052505,623.705322 158.113937,623.705200 
	C156.152847,623.705200 154.191772,623.705200 151.138779,623.705200 
	C176.987503,574.907959 202.415863,526.904236 227.675293,478.259460 
	C214.332901,477.577545 201.159454,477.536682 187.986008,477.495850 
	C190.598846,471.979309 193.015778,466.359680 195.856384,460.963013 
	C214.087204,426.327728 232.400558,391.735870 250.711716,357.142914 
	C255.093613,348.864716 259.569855,340.636475 263.661865,331.834717 
	C251.109528,331.237823 238.898026,331.191528 226.686508,331.145203 
	C230.933792,322.670563 235.051788,314.128082 239.456619,305.736145 
	C247.397461,290.607513 255.511581,275.569794 263.550507,260.492584 
	C277.675476,234.000732 291.849701,207.534912 305.901520,181.004318 
	C313.468842,166.716843 320.747406,152.276550 328.294891,137.978394 
	C339.262726,117.200684 350.355804,96.489090 361.912018,74.778862 
	C365.974915,82.348427 369.654205,89.111382 373.250153,95.918358 
	C392.728333,132.789764 412.172150,169.679337 431.654694,206.548431 
	C449.575012,240.461090 467.538483,274.350952 485.461395,308.262238 
	C489.315125,315.553711 493.076477,322.893982 496.431763,330.593933 
	C488.223419,330.984589 480.462311,330.907257 472.704620,331.035828 
	C468.474152,331.105927 464.249481,331.525055 460.022186,331.786743 
z"/>
<path fill="#78B65D" opacity="1.000000" stroke="none" 
	d="
M333.519165,724.763123 
	C334.526001,724.430969 335.984283,724.027344 337.441437,724.031433 
	C355.030029,724.080872 372.618500,724.190552 390.567993,724.465942 
	C371.942688,724.725220 352.956421,724.803162 333.519165,724.763123 
z"/>
<path fill="#79B65E" opacity="1.000000" stroke="none" 
	d="
M188.360321,477.659790 
	C201.159454,477.536682 214.332901,477.577545 227.802185,477.946686 
	C214.976883,478.124603 201.855759,477.974182 188.360321,477.659790 
z"/>
<path fill="#79B65E" opacity="1.000000" stroke="none" 
	d="
M496.373596,478.177979 
	C497.092560,477.854645 498.281860,477.075653 499.472961,477.072815 
	C511.349670,477.044556 523.226685,477.144257 535.558716,477.351685 
	C525.109741,477.663513 514.205688,477.832458 503.301575,477.998871 
	C501.149384,478.031738 498.997040,478.054901 496.373596,478.177979 
z"/>
<path fill="#E9F2E3" opacity="1.000000" stroke="none" 
	d="
M227.041275,331.409119 
	C238.898026,331.191528 251.109528,331.237823 263.648621,331.535828 
	C251.782837,331.749359 239.589432,331.711182 227.041275,331.409119 
z"/>
<path fill="#E9F2E3" opacity="1.000000" stroke="none" 
	d="
M460.485535,331.857300 
	C464.249481,331.525055 468.474152,331.105927 472.704620,331.035828 
	C480.462311,330.907257 488.223419,330.984589 496.443787,330.952972 
	C495.544250,331.285522 494.185822,331.941193 492.823547,331.949280 
	C482.199036,332.012329 471.573853,331.950867 460.485535,331.857300 
z"/>
</svg>