<svg version="1.1" id="Layer_1" xmlns="http://www.w3.org/2000/svg" xmlns:xlink="http://www.w3.org/1999/xlink" x="0px" y="0px"
	 width="100%" viewBox="0 0 694 771" enable-background="new 0 0 694 771" xml:space="preserve">
<path fill="#ECCBBD" opacity="1.000000" stroke="none" 
	d="
M370.000000,772.000000 
	C248.166672,772.000000 126.833321,771.979919 5.500089,772.094421 
	C1.750482,772.097961 0.905145,771.249146 0.906665,767.499939 
	C1.009664,513.500000 1.009664,259.500000 0.906666,5.500038 
	C0.905145,1.750831 1.750798,0.904846 5.500042,0.906557 
	C233.833328,1.010735 462.166656,1.010735 690.499939,0.906557 
	C694.249207,0.904846 695.094849,1.750831 695.093323,5.500038 
	C694.990356,259.500000 694.990356,513.500000 695.093323,767.499939 
	C695.094849,771.249146 694.249634,772.098755 690.499878,772.094604 
	C583.833313,771.977112 477.166656,772.000000 370.000000,772.000000 
z"/>
<path fill="#DA5623" opacity="1.000000" stroke="none" 
	d="
M138.764435,631.198853 
	C143.125290,620.128601 149.573410,610.524292 154.528641,600.154846 
	C158.061722,592.761475 162.340302,585.727600 166.178329,578.476196 
	C179.783005,552.771973 193.336166,527.040405 206.924728,501.327667 
	C208.456818,498.428589 210.029755,495.547516 211.691452,492.721436 
	C213.704483,489.297729 213.314331,487.837341 208.844330,487.925415 
	C197.875107,488.141663 186.898300,487.973907 175.459396,487.897064 
	C174.877457,487.603760 174.760666,487.373962 174.676453,486.758942 
	C174.819748,482.425354 177.314850,479.437378 179.014603,476.189117 
	C186.792084,461.326141 194.818573,446.593719 202.639145,431.752991 
	C217.750763,403.076385 232.770111,374.351166 247.868027,345.667328 
	C249.653671,342.274872 249.045807,341.073303 244.866241,341.028076 
	C234.876587,340.919891 224.885483,340.946106 214.485306,340.858765 
	C213.924316,340.489105 213.772964,340.178711 213.788757,339.378021 
	C218.068680,328.443115 224.261353,319.051331 229.115875,308.971283 
	C233.682098,299.489899 239.067535,290.406281 243.961761,281.078979 
	C255.899460,258.328461 267.722382,235.517715 279.664856,212.769714 
	C291.831390,189.594864 304.042114,166.442978 316.312805,143.323120 
	C330.048737,117.442467 343.871979,91.608154 357.667480,65.759148 
	C358.129517,64.893402 358.610870,64.008636 359.242249,63.268402 
	C360.816925,61.422253 360.926270,57.354076 363.088165,57.516766 
	C365.940430,57.731419 366.239258,61.707565 367.502502,64.095146 
	C381.672485,90.877151 395.742737,117.711891 409.850525,144.526825 
	C418.586731,161.131927 427.326691,177.735077 436.091003,194.325348 
	C448.935425,218.638901 461.820312,242.931091 474.655334,267.249603 
	C484.183441,285.302460 493.652527,303.386475 503.163666,321.448334 
	C505.848175,326.546234 508.391144,331.733765 511.364136,336.659882 
	C513.810913,340.714142 512.247742,341.137115 508.461395,341.059448 
	C499.466797,340.874969 490.464935,341.077545 481.467926,340.966400 
	C477.430389,340.916565 476.374268,342.088684 478.386322,345.903137 
	C490.219727,368.336975 501.926910,390.837341 513.703125,413.301331 
	C523.180969,431.380859 532.635254,449.473145 542.227234,467.492065 
	C545.692505,474.001617 550.071777,480.067047 551.556519,487.943207 
	C538.720520,487.943207 526.123779,487.943207 512.817322,487.943207 
	C515.752625,496.585480 520.546997,503.682617 524.199951,511.287048 
	C528.042786,519.286804 532.756836,526.863098 536.902283,534.723572 
	C547.886658,555.552002 558.748108,576.445312 569.701538,597.290161 
	C575.821289,608.936462 582.458130,620.312866 587.881104,632.662842 
	C587.721802,633.185730 587.610046,633.342957 587.261719,633.666809 
	C571.036133,633.888977 555.047058,633.984131 539.057983,633.992249 
	C495.412811,634.014526 451.767365,634.068115 408.122803,633.903015 
	C403.345551,633.884949 401.861206,635.202454 401.896393,640.066772 
	C402.106018,669.050964 402.005127,698.037476 401.996399,727.023193 
	C401.994202,734.308960 401.293365,734.998474 394.082092,734.999207 
	C373.092407,735.001343 352.102753,735.004211 331.113068,734.997437 
	C324.956818,734.995422 324.014008,734.071106 324.009430,727.717651 
	C323.988373,698.565308 323.875122,669.411987 324.116394,640.261658 
	C324.159241,635.083130 322.526825,633.880371 317.572144,633.895813 
	C263.765808,634.062378 209.958786,634.004211 156.151947,633.993530 
	C150.700851,633.992432 145.219177,634.382080 139.428009,632.898560 
	C138.650970,632.460144 138.518005,632.015442 138.764435,631.198853 
z"/>
<path fill="#DA5623" opacity="1.000000" stroke="none" 
	d="
M213.719696,338.997223 
	C213.982498,339.205475 214.009109,339.523224 214.055695,340.320251 
	C212.635498,340.669983 212.966141,339.921021 213.719696,338.997223 
z"/>
<path fill="#DA5623" opacity="1.000000" stroke="none" 
	d="
M138.698273,631.026245 
	C138.970184,631.320129 138.982574,631.752930 138.997833,632.510132 
	C137.840851,632.605469 137.993362,631.934570 138.698273,631.026245 
z"/>
<path fill="#DA5623" opacity="1.000000" stroke="none" 
	d="
M587.263428,633.837280 
	C587.147339,633.603027 587.309387,633.405273 587.672424,633.134399 
	C587.951599,633.392822 587.841003,633.663696 587.263428,633.837280 
z"/>
<path fill="#DA5623" opacity="1.000000" stroke="none" 
	d="
M174.469910,486.526062 
	C174.766403,486.615082 174.823746,486.856476 174.937683,487.465698 
	C174.237350,487.780548 174.117584,487.306458 174.469910,486.526062 
z"/>
<path fill="#ECCBBD" opacity="1.000000" stroke="none" 
	d="
M181.216553,569.132507 
	C184.858429,563.368774 187.224579,557.082336 190.699127,551.028809 
	C191.130096,550.681946 191.260178,550.529724 191.216553,550.132507 
	C195.207413,543.708252 197.874741,536.740479 201.699127,530.028809 
	C202.130096,529.681946 202.260178,529.529724 202.216553,529.132507 
	C206.207382,522.708252 208.874741,515.740540 212.699127,509.028870 
	C213.130127,508.681885 213.260193,508.529663 213.216522,508.132416 
	C217.207458,501.708252 219.874710,494.740479 223.699127,488.028870 
	C224.130127,487.681885 224.260193,487.529663 224.216522,487.132416 
	C224.842804,485.646027 225.642838,484.404633 226.721466,482.998688 
	C227.130127,482.681885 227.260193,482.529663 227.216522,482.132416 
	C227.042770,481.887421 226.971039,481.423492 226.902298,481.199066 
	C226.722519,480.816223 226.611465,480.657837 226.262756,480.332947 
	C213.916946,477.543671 201.583328,479.963501 188.942673,478.639496 
	C192.339066,468.714996 197.641937,459.981079 202.114380,450.885742 
	C205.664627,443.665771 209.927322,436.800018 213.676682,429.673340 
	C225.013916,408.123901 236.228912,386.510193 247.547882,364.951080 
	C251.672531,357.094971 255.947037,349.317322 260.172577,341.514404 
	C261.325439,339.385529 262.672699,337.332733 262.143036,334.420349 
	C262.158783,333.948975 262.274567,333.785645 262.195190,333.394104 
	C252.170593,333.110504 242.341110,333.063293 232.511749,332.996490 
	C227.207092,332.960449 227.107330,332.824951 229.405823,328.147583 
	C242.556488,301.386627 256.755096,275.176727 270.970886,248.973602 
	C277.565430,236.818207 283.889465,224.515930 290.324005,212.273834 
	C304.806335,184.720261 319.261993,157.152649 333.766388,129.610703 
	C341.895905,114.173851 350.094666,98.773422 358.285065,83.368721 
	C358.900696,82.210785 359.738373,81.173180 360.406219,80.040352 
	C362.335541,76.767624 364.079926,77.387917 365.680359,80.284660 
	C369.338531,86.906006 373.076813,93.486099 376.590881,100.183495 
	C388.222290,122.351349 399.716492,144.591248 411.362152,166.751572 
	C423.693970,190.217590 436.134644,213.626373 448.535553,237.056046 
	C460.550446,259.756317 472.586700,282.445312 484.589111,305.152191 
	C488.437317,312.432465 492.300659,319.707367 495.981903,327.072266 
	C498.606415,332.323090 498.139984,332.982971 492.526611,332.994904 
	C483.360779,333.014374 474.194580,333.042786 465.029236,332.975189 
	C462.584595,332.957123 461.681824,333.366364 462.963348,336.014313 
	C472.010529,354.707916 482.021362,372.896179 491.767853,391.222717 
	C494.546570,396.447632 497.606140,401.524902 500.326996,406.778625 
	C511.617310,428.579102 522.842957,450.413147 534.054016,472.254547 
	C536.407410,476.839386 535.213379,478.889130 530.007996,478.964752 
	C521.510498,479.088226 513.009888,478.984528 504.510712,479.004852 
	C497.799774,479.020905 497.556702,479.322479 500.533508,485.013794 
	C515.265991,513.180603 530.034058,541.328735 544.816406,569.469421 
	C553.620178,586.228699 562.508667,602.943542 571.283630,619.717773 
	C574.000916,624.912109 573.887329,624.995544 568.016907,624.996216 
	C511.855164,625.002502 455.693420,624.998840 399.531677,625.001465 
	C393.009552,625.001770 393.001984,625.011353 393.001282,631.661133 
	C392.998230,660.825256 393.005798,689.989319 392.995575,719.153442 
	C392.993225,725.875000 392.860107,725.999756 386.424805,725.997559 
	C369.593292,725.991699 352.761780,725.973755 335.465515,725.897095 
	C333.538025,723.740967 334.022095,721.342590 334.019531,719.055786 
	C333.988953,691.802673 334.006866,664.549622 333.987488,637.296509 
	C333.985931,635.146790 334.243774,632.972900 333.403503,630.427429 
	C333.012970,625.432678 330.067322,624.954407 326.331268,624.958374 
	C270.140167,625.018494 213.948898,625.021423 157.757950,624.908936 
	C155.833450,624.905090 150.852570,627.070251 153.703491,621.021973 
	C154.130096,620.681946 154.260178,620.529724 154.216553,620.132507 
	C157.484161,615.016235 159.575378,609.424744 162.699127,604.028809 
	C163.130096,603.681946 163.260178,603.529724 163.216553,603.132507 
	C166.484161,598.016235 168.575378,592.424744 171.699127,587.028809 
	C172.130096,586.681946 172.260178,586.529724 172.216553,586.132507 
	C175.484161,581.016235 177.575378,575.424744 180.699127,570.028809 
	C181.130096,569.681946 181.260178,569.529724 181.216553,569.132507 
z"/>
<path fill="#ECCBBD" opacity="1.000000" stroke="none" 
	d="
M333.102875,630.467896 
	C336.043213,631.138428 334.948608,633.670044 334.953033,635.625244 
	C335.020599,665.389771 335.000061,695.154480 335.000427,725.376343 
	C332.235809,725.011414 333.027466,722.693848 333.026001,720.843567 
	C333.002380,690.873230 333.026123,660.902893 333.102875,630.467896 
z"/>
<path fill="#DA5623" opacity="1.000000" stroke="none" 
	d="
M154.030121,620.124084 
	C154.278931,620.078308 154.521591,620.262451 154.737015,620.474304 
	C154.751831,620.488892 154.563431,620.710205 154.234802,620.834717 
	C154.000031,620.834106 154.017426,620.360657 154.030121,620.124084 
z"/>
<path fill="#DA5623" opacity="1.000000" stroke="none" 
	d="
M163.030121,603.124084 
	C163.278931,603.078308 163.521606,603.262451 163.736984,603.474304 
	C163.751862,603.488953 163.563446,603.710205 163.234802,603.834717 
	C163.000031,603.834106 163.017426,603.360657 163.030121,603.124084 
z"/>
<path fill="#DA5623" opacity="1.000000" stroke="none" 
	d="
M172.030121,586.124084 
	C172.278931,586.078308 172.521606,586.262451 172.736984,586.474304 
	C172.751877,586.488953 172.563461,586.710205 172.234818,586.834717 
	C172.000031,586.834106 172.017426,586.360657 172.030121,586.124084 
z"/>
<path fill="#DA5623" opacity="1.000000" stroke="none" 
	d="
M181.030121,569.124084 
	C181.278931,569.078308 181.521591,569.262451 181.736969,569.474365 
	C181.751862,569.489014 181.563446,569.710205 181.234802,569.834717 
	C181.000031,569.834106 181.017426,569.360657 181.030121,569.124084 
z"/>
<path fill="#DA5623" opacity="1.000000" stroke="none" 
	d="
M191.030121,550.124084 
	C191.278931,550.078308 191.521591,550.262451 191.736969,550.474365 
	C191.751877,550.488953 191.563461,550.710205 191.234802,550.834717 
	C191.000031,550.834106 191.017426,550.360657 191.030121,550.124084 
z"/>
<path fill="#DA5623" opacity="1.000000" stroke="none" 
	d="
M202.030121,529.124084 
	C202.278931,529.078308 202.521591,529.262451 202.736984,529.474304 
	C202.751862,529.488953 202.563446,529.710205 202.234802,529.834717 
	C202.000031,529.834106 202.017426,529.360657 202.030121,529.124084 
z"/>
<path fill="#DA5623" opacity="1.000000" stroke="none" 
	d="
M213.030106,508.124023 
	C213.278915,508.078247 213.521606,508.262390 213.737000,508.474304 
	C213.751907,508.488953 213.563477,508.710236 213.234833,508.834778 
	C213.000046,508.834137 213.017441,508.360596 213.030106,508.124023 
z"/>
<path fill="#DA5623" opacity="1.000000" stroke="none" 
	d="
M224.030090,487.124023 
	C224.278900,487.078247 224.521591,487.262421 224.737000,487.474304 
	C224.751877,487.488922 224.563477,487.710236 224.234833,487.834778 
	C224.000046,487.834137 224.017441,487.360596 224.030090,487.124023 
z"/>
<path fill="#DA5623" opacity="1.000000" stroke="none" 
	d="
M227.030106,482.124023 
	C227.278915,482.078247 227.521606,482.262390 227.737000,482.474304 
	C227.751892,482.488953 227.563477,482.710236 227.234833,482.834778 
	C227.000046,482.834137 227.017441,482.360596 227.030106,482.124023 
z"/>
<path fill="#DA5623" opacity="1.000000" stroke="none" 
	d="
M226.131638,480.327545 
	C226.389923,480.047211 226.661621,480.157501 226.836868,480.735962 
	C226.602386,480.852692 226.403931,480.690704 226.131638,480.327545 
z"/>
<path fill="#DA5623" opacity="1.000000" stroke="none" 
	d="
M262.008759,333.402588 
	C262.538483,333.176483 263.005402,333.232056 262.257507,334.014404 
	C262.042999,334.112274 262.017487,333.639282 262.008759,333.402588 
z"/>
</svg>