<svg version="1.1" id="Layer_1" xmlns="http://www.w3.org/2000/svg" xmlns:xlink="http://www.w3.org/1999/xlink" x="0px" y="0px"
	 width="100%" viewBox="0 0 512 512" enable-background="new 0 0 512 512" xml:space="preserve">
<path fill="#79B7BA" opacity="1.000000" stroke="none" 
	d="
M513.000000,2.000000 
	C513.000000,117.023323 513.000000,232.046646 512.747192,347.623230 
	C511.620514,348.127136 510.746735,348.077820 509.608704,347.816315 
	C503.828705,337.820831 498.277588,328.057190 492.805023,318.249817 
	C483.475800,301.531067 474.195953,284.784790 465.089478,267.851379 
	C465.521240,267.157074 465.758942,266.661469 466.462769,266.112579 
	C476.128418,266.059326 485.327881,266.059326 495.154053,266.059326 
	C494.363647,264.123169 494.115540,263.160614 493.618622,262.350739 
	C484.465027,247.431793 475.230835,232.562134 466.120148,217.617126 
	C458.309479,204.804611 450.633087,191.910217 443.100220,178.808716 
	C443.535553,177.765579 443.767944,176.965759 444.464294,176.112732 
	C449.932739,176.007492 454.937256,175.955444 460.182159,176.079987 
	C461.157196,175.942856 461.891815,175.629135 462.626465,175.315399 
	C461.806244,174.212784 460.986053,173.110153 459.994995,171.694946 
	C432.349915,116.577614 404.875702,61.772850 376.712769,5.594262 
	C347.982361,63.053852 319.976105,119.065163 291.385681,176.244797 
	C298.738373,176.244797 304.851227,176.244797 310.963562,176.724121 
	C310.989471,177.839737 311.015930,178.476044 310.993896,179.462860 
	C297.609558,202.067322 284.267395,224.317505 270.941956,246.577698 
	C267.259216,252.729706 263.626343,258.911560 259.326843,266.165833 
	C269.778442,266.165833 278.890900,266.165833 288.083130,266.431702 
	C288.477142,267.148102 288.791382,267.598663 289.038544,268.401611 
	C283.509827,278.785309 278.102264,288.846466 272.573669,298.840729 
	C264.477203,313.477081 256.253448,328.043182 248.173996,342.688873 
	C245.922318,346.770569 243.988037,351.027374 241.429855,356.164276 
	C271.768555,356.164276 300.905273,356.164276 330.161835,356.308594 
	C330.450714,356.638275 330.635406,356.806458 330.888428,357.426208 
	C330.906006,396.943939 330.870850,435.992981 330.691376,475.161835 
	C330.361725,475.450714 330.193542,475.635406 329.573792,475.888458 
	C300.737061,475.905548 272.369019,475.869934 244.000732,475.377319 
	C244.000656,465.335449 244.000824,455.750549 244.466858,446.112457 
	C250.340073,446.039490 255.751297,446.137909 261.153320,445.958954 
	C264.830780,445.837097 268.495361,445.326965 272.488098,444.793518 
	C273.145386,444.048676 273.765015,443.504547 273.772217,442.952393 
	C273.873077,435.222931 273.949829,427.491638 273.849640,419.763123 
	C273.837646,418.838165 272.753113,417.927094 272.027679,416.613647 
	C270.724945,415.814392 269.570953,415.104187 268.393646,415.063171 
	C264.235413,414.918304 260.069183,415.000397 255.906006,415.000305 
	C232.758606,414.999847 209.610062,415.118958 186.464767,414.898224 
	C181.980972,414.855499 180.704483,416.224609 180.911591,420.564850 
	C181.244598,427.543182 181.159805,434.553955 180.938492,441.541077 
	C180.825897,445.096069 182.159897,446.120453 185.570343,446.060883 
	C193.724472,445.918457 201.884430,446.108459 210.161835,446.308594 
	C210.450729,446.638275 210.635422,446.806458 210.888443,447.426147 
	C210.905991,456.943909 210.870865,465.992950 210.691376,475.161804 
	C210.361679,475.450714 210.193512,475.635406 209.573822,475.888458 
	C190.737076,475.905548 172.369019,475.869934 154.000732,475.377319 
	C154.000656,445.335449 154.000824,415.750549 154.466873,386.112488 
	C172.125244,386.039459 189.317902,386.050598 206.509964,385.955719 
	C208.396927,385.945312 210.280533,385.326874 212.488113,384.793457 
	C213.145386,384.048676 213.765015,383.504517 213.772217,382.952362 
	C213.873032,375.222900 213.949753,367.491608 213.849564,359.763092 
	C213.837570,358.838135 212.753082,357.927094 212.027679,356.613617 
	C210.224792,355.812012 208.562744,355.068512 206.894669,355.054718 
	C194.735138,354.954132 182.574417,355.000000 170.414062,355.000031 
	C135.765396,355.000183 101.116310,355.082123 66.468605,354.900543 
	C61.990814,354.877106 60.691727,356.216980 60.912228,360.563965 
	C61.249352,367.210083 61.280773,373.901794 60.903725,380.543579 
	C60.646595,385.073029 62.276321,386.134735 66.577553,386.093719 
	C84.397209,385.923859 102.220245,386.109314 120.161858,386.308594 
	C120.450729,386.638275 120.635429,386.806458 120.888451,387.426208 
	C120.905998,416.943909 120.870857,445.992950 120.691383,475.161804 
	C120.361732,475.450745 120.193558,475.635437 119.573830,475.888458 
	C100.737083,475.905548 82.369034,475.869934 64.000732,475.377319 
	C64.000664,465.335449 64.000832,455.750549 64.466904,446.112427 
	C70.340103,446.039459 75.751335,446.137909 81.153374,445.958954 
	C84.830811,445.837097 88.495384,445.326965 92.488113,444.793518 
	C93.145378,444.048676 93.764999,443.504547 93.772209,442.952393 
	C93.873032,435.222931 93.949791,427.491638 93.849609,419.763123 
	C93.837616,418.838165 92.753098,417.927094 92.027679,416.613617 
	C89.892975,415.811829 87.897964,415.061584 85.899414,415.052063 
	C58.266777,414.920135 30.633652,414.889954 3.000466,414.381714 
	C3.000192,276.285675 3.000096,138.642838 3.000000,1.000000 
	C172.356659,1.000000 341.713318,1.000000 511.684204,1.183532 
	C512.510681,1.602067 512.744507,1.813045 513.000000,2.000000 
z"/>
<path fill="#9B8047" opacity="1.000000" stroke="none" 
	d="
M3.000643,414.834900 
	C30.633652,414.889954 58.266777,414.920135 85.899414,415.052063 
	C87.897964,415.061584 89.892975,415.811829 91.973755,417.078766 
	C92.093826,426.956726 92.129768,435.973602 92.165710,444.990448 
	C88.495384,445.326965 84.830811,445.837097 81.153374,445.958954 
	C75.751335,446.137909 70.340103,446.039459 64.061119,446.149170 
	C62.829269,446.732635 62.159935,447.223053 62.154919,447.720154 
	C62.067883,456.348022 62.013783,464.977325 62.124645,473.604126 
	C62.134300,474.355438 63.347061,475.091278 64.000984,475.834320 
	C82.369034,475.869934 100.737083,475.905548 119.784348,475.853210 
	C120.741814,475.603516 120.865860,475.362427 120.835716,475.041962 
	C120.870857,445.992950 120.905998,416.943909 120.853233,387.215698 
	C120.603607,386.258179 120.362518,386.134125 120.042046,386.164276 
	C102.220245,386.109314 84.397209,385.923859 66.577553,386.093719 
	C62.276321,386.134735 60.646595,385.073029 60.903725,380.543579 
	C61.280773,373.901794 61.249352,367.210083 60.912228,360.563965 
	C60.691727,356.216980 61.990814,354.877106 66.468605,354.900543 
	C101.116310,355.082123 135.765396,355.000183 170.414062,355.000031 
	C182.574417,355.000000 194.735138,354.954132 206.894669,355.054718 
	C208.562744,355.068512 210.224792,355.812012 211.973755,357.078766 
	C212.093811,366.956726 212.129761,375.973602 212.165710,384.990417 
	C210.280533,385.326874 208.396927,385.945312 206.509964,385.955719 
	C189.317902,386.050598 172.125244,386.039459 154.061096,386.149231 
	C152.796799,387.232269 152.063400,388.224609 152.061157,389.218628 
	C151.998672,417.011475 151.987793,444.804596 152.093613,472.597198 
	C152.097748,473.678650 153.337158,474.755371 154.000977,475.834320 
	C172.369019,475.869934 190.737076,475.905548 209.784332,475.853241 
	C210.741837,475.603546 210.865891,475.362457 210.835724,475.041992 
	C210.870865,465.992950 210.905991,456.943909 210.853210,447.215637 
	C210.603561,446.258179 210.362473,446.134125 210.042023,446.164276 
	C201.884430,446.108459 193.724472,445.918457 185.570343,446.060883 
	C182.159897,446.120453 180.825897,445.096069 180.938492,441.541077 
	C181.159805,434.553955 181.244598,427.543182 180.911591,420.564850 
	C180.704483,416.224609 181.980972,414.855499 186.464767,414.898224 
	C209.610062,415.118958 232.758606,414.999847 255.906006,415.000305 
	C260.069183,415.000397 264.235413,414.918304 268.393646,415.063171 
	C269.570953,415.104187 270.724945,415.814392 271.973755,417.078796 
	C272.093811,426.956726 272.129761,435.973602 272.165710,444.990448 
	C268.495361,445.326965 264.830780,445.837097 261.153320,445.958954 
	C255.751297,446.137909 250.340073,446.039490 244.061081,446.149200 
	C242.829239,446.732666 242.159866,447.223083 242.154861,447.720184 
	C242.067841,456.348022 242.013809,464.977325 242.124680,473.604095 
	C242.134338,474.355408 243.347061,475.091278 244.000977,475.834320 
	C272.369019,475.869934 300.737061,475.905548 329.784302,475.853241 
	C330.741821,475.603577 330.865875,475.362488 330.835693,475.042023 
	C330.870850,435.992981 330.906006,396.943939 330.853210,357.215698 
	C330.603577,356.258179 330.362488,356.134125 330.042023,356.164276 
	C300.905273,356.164276 271.768555,356.164276 241.429855,356.164276 
	C243.988037,351.027374 245.922318,346.770569 248.173996,342.688873 
	C256.253448,328.043182 264.477203,313.477081 272.573669,298.840729 
	C278.102264,288.846466 283.509827,278.785309 289.261169,268.216125 
	C289.035034,267.174072 288.519226,266.669952 288.003387,266.165833 
	C278.890900,266.165833 269.778442,266.165833 259.326843,266.165833 
	C263.626343,258.911560 267.259216,252.729706 270.941956,246.577698 
	C284.267395,224.317505 297.609558,202.067322 311.254272,179.317017 
	C311.912933,178.071503 312.262726,177.322357 312.612488,176.573212 
	C312.063019,176.463745 311.513550,176.354279 310.964081,176.244797 
	C304.851227,176.244797 298.738373,176.244797 291.385681,176.244797 
	C319.976105,119.065163 347.982361,63.053852 376.712769,5.594262 
	C404.875702,61.772850 432.349915,116.577614 459.941223,172.081818 
	C460.019470,173.821976 459.980591,174.862686 459.941711,175.903397 
	C454.937256,175.955444 449.932739,176.007492 444.164978,176.066849 
	C439.852264,176.494125 442.309875,177.931442 442.897339,179.052032 
	C450.633087,191.910217 458.309479,204.804611 466.120148,217.617126 
	C475.230835,232.562134 484.465027,247.431793 493.618622,262.350739 
	C494.115540,263.160614 494.363647,264.123169 495.154053,266.059326 
	C485.327881,266.059326 476.128418,266.059326 466.172150,266.091003 
	C465.242004,266.765137 465.068665,267.407593 464.895355,268.050079 
	C474.195953,284.784790 483.475800,301.531067 492.805023,318.249817 
	C498.277588,328.057190 503.828705,337.820831 509.679382,348.152222 
	C511.009491,350.133545 512.004761,351.566772 513.000000,353.000000 
	C513.000000,353.750000 513.000000,354.500000 512.531372,355.625000 
	C483.896271,356.000214 455.729340,356.087830 427.564056,355.908417 
	C423.236816,355.880890 421.878601,356.987427 421.900604,361.469666 
	C422.079041,397.801758 422.072784,434.135498 421.906433,470.467712 
	C421.886383,474.846100 423.070251,476.127686 427.501465,476.097748 
	C455.999878,475.905182 484.500275,475.999756 513.000000,476.000000 
	C513.000000,486.020905 513.000000,496.041779 512.537354,506.531342 
	C341.716461,507.000000 171.358231,507.000000 1.000000,507.000000 
	C1.000000,496.979095 1.000000,486.958221 1.468657,476.468658 
	C10.603695,475.997742 19.271307,475.911743 27.935776,476.039337 
	C30.908478,476.083130 32.108864,475.118164 32.042961,472.029877 
	C31.886555,464.700134 31.894722,457.362823 32.040436,450.032654 
	C32.100307,447.020721 31.046276,445.911896 27.998369,445.957855 
	C19.000748,446.093567 9.999704,446.002380 1.000000,446.000000 
	C1.000000,435.979095 1.000000,425.958221 1.335027,415.460175 
	C2.113583,414.933655 2.557113,414.884277 3.000643,414.834900 
M299.973358,314.985474 
	C299.973358,314.985474 299.949219,314.920959 299.352936,315.268036 
	C297.973480,317.659698 296.476227,319.997131 295.327026,322.494720 
	C295.128418,322.926331 296.405823,324.037018 297.933136,324.940643 
	C329.017578,324.960419 360.102020,325.006073 391.186462,324.991302 
	C413.458801,324.980743 435.731079,324.889374 458.566986,324.928467 
	C459.112213,324.743744 459.657410,324.559021 460.202637,324.374268 
	C459.835571,323.898438 459.468506,323.422577 458.969177,322.238647 
	C457.559387,319.623535 456.189514,316.985962 454.733643,314.396790 
	C441.188324,290.307281 427.616943,266.232483 414.092468,242.131302 
	C412.937042,240.072311 412.064789,237.854385 410.674255,234.884140 
	C420.859894,234.884140 429.929993,234.884140 440.000946,234.884140 
	C421.599579,204.717285 403.697021,175.368164 385.128448,144.927216 
	C394.584106,144.927216 402.492035,144.927216 411.442535,144.927216 
	C399.733124,121.508904 388.461395,98.965958 376.734344,75.512367 
	C364.927063,99.165520 353.668762,121.718887 341.915192,145.264404 
	C351.363647,145.264404 359.419403,145.264404 368.313599,145.264404 
	C350.247223,175.408646 332.648438,204.772659 314.530670,235.002640 
	C323.519257,235.002640 331.317810,235.055588 339.114868,234.969147 
	C341.342072,234.944458 342.754730,235.280701 341.368195,238.367126 
	C340.548889,240.230652 339.729553,242.094177 338.973358,243.985428 
	C338.973358,243.985428 338.949219,243.920868 338.351654,244.269104 
	C336.537842,247.832001 334.724060,251.394913 332.973419,254.985321 
	C332.973419,254.985321 332.949219,254.920853 332.353119,255.267639 
	C330.872162,258.164368 329.391205,261.061096 327.973419,263.985474 
	C327.973419,263.985474 327.949188,263.920959 327.351624,264.269104 
	C325.537842,267.832001 323.724060,271.394897 321.973389,274.985504 
	C321.973389,274.985504 321.949188,274.920959 321.353088,275.267700 
	C319.872162,278.164398 318.391235,281.061127 316.973419,283.985474 
	C316.973419,283.985474 316.949188,283.920959 316.351624,284.269104 
	C314.537842,287.832001 312.724060,291.394897 310.973389,294.985504 
	C310.973389,294.985504 310.949188,294.920959 310.351624,295.269104 
	C308.537842,298.832001 306.724060,302.394897 304.973389,305.985504 
	C304.973389,305.985504 304.949188,305.920959 304.353119,306.267700 
	C302.872192,309.164429 301.391235,312.061127 299.973358,314.985474 
M391.000000,397.500000 
	C390.998840,385.172180 390.897125,372.843048 391.060730,360.517426 
	C391.106873,357.039520 389.973969,355.830811 386.485382,355.940765 
	C379.661865,356.155853 372.824402,356.113220 365.997681,355.958313 
	C362.945831,355.889099 361.956696,357.030975 361.962189,360.033173 
	C362.030670,397.349670 362.031281,434.666382 361.961517,471.982880 
	C361.955841,475.004272 362.981110,476.112885 366.013763,476.040833 
	C372.507141,475.886475 379.022003,475.727417 385.498657,476.092285 
	C389.954651,476.343323 391.131958,474.841827 391.095306,470.467010 
	C390.894196,446.479431 390.999756,422.489258 391.000000,397.500000 
z"/>
<path fill="#79B7BA" opacity="1.000000" stroke="none" 
	d="
M513.000000,475.531342 
	C484.500275,475.999756 455.999878,475.905182 427.501465,476.097748 
	C423.070251,476.127686 421.886383,474.846100 421.906433,470.467712 
	C422.072784,434.135498 422.079041,397.801758 421.900604,361.469666 
	C421.878601,356.987427 423.236816,355.880890 427.564056,355.908417 
	C455.729340,356.087830 483.896271,356.000214 512.531372,356.000000 
	C513.000000,395.687561 513.000000,435.375122 513.000000,475.531342 
z"/>
<path fill="#79B7BA" opacity="1.000000" stroke="none" 
	d="
M1.000000,507.497009 
	C171.358231,507.000000 341.716461,507.000000 512.537354,507.000000 
	C513.000000,508.998108 513.000000,510.996216 513.000000,512.994507 
	C342.333344,512.994629 171.666672,512.994629 1.000000,512.991943 
	C1.000000,511.324188 1.000000,509.659119 1.000000,507.497009 
z"/>
<path fill="#79B7BA" opacity="1.000000" stroke="none" 
	d="
M1.000000,446.468658 
	C9.999704,446.002380 19.000748,446.093567 27.998369,445.957855 
	C31.046276,445.911896 32.100307,447.020721 32.040436,450.032654 
	C31.894722,457.362823 31.886555,464.700134 32.042961,472.029877 
	C32.108864,475.118164 30.908478,476.083130 27.935776,476.039337 
	C19.271307,475.911743 10.603695,475.997742 1.468657,476.000000 
	C1.000000,466.312439 1.000000,456.624878 1.000000,446.468658 
z"/>
<path fill="#79B7BA" opacity="1.000000" stroke="none" 
	d="
M3.000465,414.381714 
	C2.557113,414.884277 2.113583,414.933655 1.335027,414.991516 
	C1.000000,278.497772 0.996801,141.995544 1.041430,5.493341 
	C1.041920,3.995457 1.666667,2.497776 2.500000,1.000000 
	C3.000096,138.642838 3.000192,276.285675 3.000465,414.381714 
z"/>
<path fill="#79B7BA" opacity="1.000000" stroke="none" 
	d="
M513.000000,352.583344 
	C512.004761,351.566772 511.009491,350.133545 509.943604,348.364380 
	C510.746735,348.077820 511.620514,348.127136 512.747192,348.088257 
	C513.000000,349.388885 513.000000,350.777802 513.000000,352.583344 
z"/>
<path fill="#79B7BA" opacity="1.000000" stroke="none" 
	d="
M513.000000,1.500000 
	C512.744507,1.813045 512.510681,1.602067 512.149231,1.183532 
	C512.333313,1.000000 512.666687,1.000000 513.000000,1.500000 
z"/>
<path fill="#79B7BA" opacity="1.000000" stroke="none" 
	d="
M154.000732,475.377319 
	C153.337158,474.755371 152.097748,473.678650 152.093613,472.597198 
	C151.987793,444.804596 151.998672,417.011475 152.061157,389.218628 
	C152.063400,388.224609 152.796799,387.232269 153.595200,386.202393 
	C154.000824,415.750549 154.000656,445.335449 154.000732,475.377319 
z"/>
<path fill="#79B7BA" opacity="1.000000" stroke="none" 
	d="
M244.000732,475.377319 
	C243.347061,475.091278 242.134338,474.355408 242.124680,473.604095 
	C242.013809,464.977325 242.067841,456.348022 242.154861,447.720184 
	C242.159866,447.223083 242.829239,446.732666 243.595184,446.202393 
	C244.000824,455.750549 244.000656,465.335449 244.000732,475.377319 
z"/>
<path fill="#79B7BA" opacity="1.000000" stroke="none" 
	d="
M64.000732,475.377319 
	C63.347061,475.091278 62.134300,474.355438 62.124645,473.604126 
	C62.013783,464.977325 62.067883,456.348022 62.154919,447.720154 
	C62.159935,447.223053 62.829269,446.732635 63.595222,446.202393 
	C64.000832,455.750549 64.000664,465.335449 64.000732,475.377319 
z"/>
<path fill="#79B7BA" opacity="1.000000" stroke="none" 
	d="
M212.488113,384.793488 
	C212.129761,375.973602 212.093811,366.956726 212.111786,357.474731 
	C212.753082,357.927094 213.837570,358.838135 213.849564,359.763092 
	C213.949753,367.491608 213.873032,375.222900 213.772217,382.952362 
	C213.765015,383.504517 213.145386,384.048676 212.488113,384.793488 
z"/>
<path fill="#79B7BA" opacity="1.000000" stroke="none" 
	d="
M92.488113,444.793518 
	C92.129768,435.973602 92.093826,426.956726 92.111801,417.474731 
	C92.753098,417.927094 93.837616,418.838165 93.849609,419.763123 
	C93.949791,427.491638 93.873032,435.222931 93.772209,442.952393 
	C93.764999,443.504547 93.145378,444.048676 92.488113,444.793518 
z"/>
<path fill="#79B7BA" opacity="1.000000" stroke="none" 
	d="
M272.488098,444.793518 
	C272.129761,435.973602 272.093811,426.956726 272.111786,417.474731 
	C272.753113,417.927094 273.837646,418.838165 273.849640,419.763123 
	C273.949829,427.491638 273.873077,435.222931 273.772217,442.952393 
	C273.765015,443.504547 273.145386,444.048676 272.488098,444.793518 
z"/>
<path fill="#79B7BA" opacity="1.000000" stroke="none" 
	d="
M460.182129,176.079987 
	C459.980591,174.862686 460.019470,173.821976 460.112061,172.394394 
	C460.986053,173.110153 461.806244,174.212784 462.626465,175.315399 
	C461.891815,175.629135 461.157196,175.942856 460.182129,176.079987 
z"/>
<path fill="#79B7BA" opacity="1.000000" stroke="none" 
	d="
M443.100250,178.808716 
	C442.309875,177.931442 439.852264,176.494125 443.701019,176.120056 
	C443.767944,176.965759 443.535553,177.765579 443.100250,178.808716 
z"/>
<path fill="#79B7BA" opacity="1.000000" stroke="none" 
	d="
M310.963562,176.724121 
	C311.513550,176.354279 312.063019,176.463745 312.612488,176.573212 
	C312.262726,177.322357 311.912933,178.071503 311.302734,178.966492 
	C311.015930,178.476044 310.989471,177.839737 310.963562,176.724121 
z"/>
<path fill="#79B7BA" opacity="1.000000" stroke="none" 
	d="
M465.089447,267.851379 
	C465.068665,267.407593 465.242004,266.765137 465.705994,266.144257 
	C465.758942,266.661469 465.521240,267.157074 465.089447,267.851379 
z"/>
<path fill="#79B7BA" opacity="1.000000" stroke="none" 
	d="
M288.083130,266.431702 
	C288.519226,266.669952 289.035034,267.174072 289.328247,267.863708 
	C288.791382,267.598663 288.477142,267.148102 288.083130,266.431702 
z"/>
<path fill="#79B7BA" opacity="1.000000" stroke="none" 
	d="
M120.161858,386.308594 
	C120.362518,386.134125 120.603607,386.258179 120.800545,386.746979 
	C120.635429,386.806458 120.450729,386.638275 120.161858,386.308594 
z"/>
<path fill="#79B7BA" opacity="1.000000" stroke="none" 
	d="
M330.161835,356.308594 
	C330.362488,356.134125 330.603577,356.258179 330.800537,356.746979 
	C330.635406,356.806458 330.450714,356.638275 330.161835,356.308594 
z"/>
<path fill="#79B7BA" opacity="1.000000" stroke="none" 
	d="
M210.161835,446.308594 
	C210.362473,446.134125 210.603561,446.258179 210.800537,446.746948 
	C210.635422,446.806458 210.450729,446.638275 210.161835,446.308594 
z"/>
<path fill="#79B7BA" opacity="1.000000" stroke="none" 
	d="
M120.691383,475.161804 
	C120.865860,475.362427 120.741814,475.603516 120.253052,475.800537 
	C120.193558,475.635437 120.361732,475.450745 120.691383,475.161804 
z"/>
<path fill="#79B7BA" opacity="1.000000" stroke="none" 
	d="
M210.691376,475.161804 
	C210.865891,475.362457 210.741837,475.603546 210.253021,475.800537 
	C210.193512,475.635406 210.361679,475.450714 210.691376,475.161804 
z"/>
<path fill="#79B7BA" opacity="1.000000" stroke="none" 
	d="
M330.691406,475.161835 
	C330.865875,475.362488 330.741821,475.603577 330.253021,475.800537 
	C330.193542,475.635406 330.361725,475.450714 330.691406,475.161835 
z"/>
<path fill="#79B7BA" opacity="1.000000" stroke="none" 
	d="
M341.897095,237.948257 
	C342.754730,235.280701 341.342072,234.944458 339.114868,234.969147 
	C331.317810,235.055588 323.519257,235.002640 314.530670,235.002640 
	C332.648438,204.772659 350.247223,175.408646 368.313599,145.264404 
	C359.419403,145.264404 351.363647,145.264404 341.915192,145.264404 
	C353.668762,121.718887 364.927063,99.165520 376.734344,75.512367 
	C388.461395,98.965958 399.733124,121.508904 411.442535,144.927216 
	C402.492035,144.927216 394.584106,144.927216 385.128448,144.927216 
	C403.697021,175.368164 421.599579,204.717285 440.000946,234.884140 
	C429.929993,234.884140 420.859894,234.884140 410.674255,234.884140 
	C412.064789,237.854385 412.937042,240.072311 414.092468,242.131302 
	C427.616943,266.232483 441.188324,290.307281 454.733643,314.396790 
	C456.189514,316.985962 457.559387,319.623535 458.841675,322.791992 
	C458.477264,323.841614 458.240326,324.337830 458.003387,324.834076 
	C435.731079,324.889374 413.458801,324.980743 391.186462,324.991302 
	C360.102020,325.006073 329.017578,324.960419 297.498474,324.523682 
	C298.025635,321.044769 298.987427,317.982880 299.949219,314.920959 
	C299.949219,314.920959 299.973358,314.985474 300.271545,314.867767 
	C302.029541,311.807037 303.489349,308.863983 304.949188,305.920959 
	C304.949188,305.920959 304.973389,305.985504 305.271118,305.868134 
	C307.362305,302.140808 309.155731,298.530884 310.949188,294.920959 
	C310.949188,294.920959 310.973389,294.985504 311.271118,294.868134 
	C313.362305,291.140808 315.155731,287.530884 316.949158,283.920959 
	C316.949188,283.920959 316.973419,283.985474 317.271545,283.867767 
	C319.029541,280.807037 320.489380,277.863983 321.949188,274.920959 
	C321.949188,274.920959 321.973389,274.985504 322.271118,274.868134 
	C324.362305,271.140839 326.155731,267.530884 327.949188,263.920959 
	C327.949188,263.920959 327.973419,263.985474 328.271545,263.867767 
	C330.029541,260.806976 331.489380,257.863922 332.949219,254.920853 
	C332.949219,254.920853 332.973419,254.985321 333.271118,254.868042 
	C335.362305,251.140808 337.155762,247.530838 338.949219,243.920868 
	C338.949219,243.920868 338.973358,243.985428 339.260864,243.874420 
	C340.331299,241.825027 341.114197,239.886642 341.897095,237.948257 
z"/>
<path fill="#79B7BA" opacity="1.000000" stroke="none" 
	d="
M391.000000,398.000000 
	C390.999756,422.489258 390.894196,446.479431 391.095306,470.467010 
	C391.131958,474.841827 389.954651,476.343323 385.498657,476.092285 
	C379.022003,475.727417 372.507141,475.886475 366.013763,476.040833 
	C362.981110,476.112885 361.955841,475.004272 361.961517,471.982880 
	C362.031281,434.666382 362.030670,397.349670 361.962189,360.033173 
	C361.956696,357.030975 362.945831,355.889099 365.997681,355.958313 
	C372.824402,356.113220 379.661865,356.155853 386.485382,355.940765 
	C389.973969,355.830811 391.106873,357.039520 391.060730,360.517426 
	C390.897125,372.843048 390.998840,385.172180 391.000000,398.000000 
z"/>
<path fill="#79B7BA" opacity="1.000000" stroke="none" 
	d="
M338.650452,244.094986 
	C337.155762,247.530838 335.362305,251.140808 333.239563,254.854309 
	C334.724060,251.394913 336.537842,247.832001 338.650452,244.094986 
z"/>
<path fill="#79B7BA" opacity="1.000000" stroke="none" 
	d="
M310.650391,295.095032 
	C309.155731,298.530884 307.362305,302.140808 305.239563,305.854279 
	C306.724060,302.394897 308.537842,298.832001 310.650391,295.095032 
z"/>
<path fill="#79B7BA" opacity="1.000000" stroke="none" 
	d="
M316.650391,284.095032 
	C315.155731,287.530884 313.362305,291.140808 311.239563,294.854279 
	C312.724060,291.394897 314.537842,287.832001 316.650391,284.095032 
z"/>
<path fill="#79B7BA" opacity="1.000000" stroke="none" 
	d="
M327.650391,264.095032 
	C326.155731,267.530884 324.362305,271.140839 322.239563,274.854279 
	C323.724060,271.394897 325.537842,267.832001 327.650391,264.095032 
z"/>
<path fill="#79B7BA" opacity="1.000000" stroke="none" 
	d="
M299.651062,315.094482 
	C298.987427,317.982880 298.025635,321.044769 297.032654,324.470367 
	C296.405823,324.037018 295.128418,322.926331 295.327026,322.494720 
	C296.476227,319.997131 297.973480,317.659698 299.651062,315.094482 
z"/>
<path fill="#79B7BA" opacity="1.000000" stroke="none" 
	d="
M304.651154,306.094330 
	C303.489349,308.863983 302.029541,311.807037 300.239990,314.853943 
	C301.391235,312.061127 302.872192,309.164429 304.651154,306.094330 
z"/>
<path fill="#79B7BA" opacity="1.000000" stroke="none" 
	d="
M321.651123,275.094330 
	C320.489380,277.863983 319.029541,280.807037 317.239990,283.853943 
	C318.391235,281.061127 319.872162,278.164398 321.651123,275.094330 
z"/>
<path fill="#79B7BA" opacity="1.000000" stroke="none" 
	d="
M332.651184,255.094238 
	C331.489380,257.863922 330.029541,260.806976 328.239990,263.853943 
	C329.391205,261.061096 330.872162,258.164368 332.651184,255.094238 
z"/>
<path fill="#79B7BA" opacity="1.000000" stroke="none" 
	d="
M341.632629,238.157684 
	C341.114197,239.886642 340.331299,241.825027 339.229309,243.860565 
	C339.729553,242.094177 340.548889,240.230652 341.632629,238.157684 
z"/>
<path fill="#79B7BA" opacity="1.000000" stroke="none" 
	d="
M458.285187,324.881287 
	C458.240326,324.337830 458.477264,323.841614 458.907837,323.146057 
	C459.468506,323.422577 459.835571,323.898438 460.202637,324.374268 
	C459.657410,324.559021 459.112213,324.743744 458.285187,324.881287 
z"/>
</svg>